<?xml version="1.0" standalone="no"?>
<!DOCTYPE svg PUBLIC "-//W3C//DTD SVG 1.1//EN" "http://www.w3.org/Graphics/SVG/1.1/DTD/svg11.dtd" >
<svg xmlns="http://www.w3.org/2000/svg">
<metadata>Generated by IcoMoon</metadata>
<defs>
<font id="icomoon" horiz-adv-x="1024">
<font-face units-per-em="1024" ascent="960" descent="-64" />
<missing-glyph horiz-adv-x="1024" />
<glyph unicode="&#x20;" horiz-adv-x="512" d="" />
<glyph unicode="&#xe900;" glyph-name="question-mark" d="M512 224c-30.72 0-57.92 22.080-63.040 53.44-22.4 134.72 59.2 209.28 131.2 274.88 21.44 19.52 43.2 39.36 63.040 61.12 16.64 17.92 21.76 34.56 15.36 49.28-12.16 27.52-62.72 57.28-145.28 57.28-121.92 0-156.16-116.16-159.68-129.28-8.96-33.92-43.84-54.72-77.76-45.76-33.92 8.64-54.72 43.2-46.080 77.12 19.52 78.080 104 225.92 283.84 225.92 125.44 0 225.92-51.2 262.080-133.76 27.52-62.4 13.76-130.56-37.76-187.2-23.68-25.92-48-48-71.36-69.44-69.12-63.040-101.76-96-91.2-159.36 5.76-34.88-17.6-67.84-52.48-73.6-3.84-0.32-7.36-0.64-10.88-0.64zM576 128c0-35.346-28.654-64-64-64s-64 28.654-64 64c0 35.346 28.654 64 64 64s64-28.654 64-64z" />
<glyph unicode="&#xe901;" glyph-name="cofettie-icon" d="M227.84 86.4l-79.040-26.88c-24.64-8.32-48.64 15.36-40 40.32l24.96 73.6c25.92-34.56 57.6-64 94.080-87.040zM370.88 135.040l-102.4-34.88c-49.6 25.92-91.52 64.32-121.92 111.36l33.28 97.6c39.040-79.68 107.52-142.4 191.040-174.080zM666.88 248c-3.2-8.64-9.92-15.68-19.52-18.88l-224.96-76.48c-105.28 24.64-190.72 101.76-227.2 201.92l53.76 158.4c35.84-156.48 175.68-272.96 343.040-272.96 25.6 0 50.88 2.88 74.88 8zM272.32 581.12l5.76 17.28c7.68 22.080 35.84 28.8 52.48 12.16l328.96-329.28c0.64-0.64 0.96-0.96 1.28-1.6-22.080-5.12-45.12-7.68-68.8-7.68-172.8 0-313.92 137.6-319.68 309.12zM695.68 316.8c-4.48 0-8.96 1.92-12.16 5.44-5.76 6.72-5.12 16.64 1.6 22.72 94.080 82.56 212.16 34.56 216.96 32.64 8-3.52 11.84-12.8 8.64-20.8s-12.8-11.84-20.8-8.64c-4.16 1.6-104.96 41.92-183.68-26.88-3.2-3.2-6.72-4.48-10.56-4.48zM387.52 603.84c-3.84 0-7.68 1.28-10.88 4.16-6.4 6.080-7.040 16-0.96 22.72 74.24 81.6 42.56 147.52 41.28 150.4-4.16 7.68-0.96 17.28 6.72 21.12 7.68 4.16 17.28 0.96 21.44-6.72 1.92-3.52 44.16-87.36-46.080-186.56-2.88-3.2-7.36-5.12-11.52-5.12zM494.72 551.36c-7.040 0-13.44 4.8-15.36 11.84-2.24 8.64 2.88 17.28 11.2 19.52 11.84 3.2 22.080 13.12 23.36 22.4 0.96 6.72-3.52 12.8-12.8 18.24-8 4.48-22.4 13.12-19.2 27.84s18.24 16 37.44 17.6c15.040 1.28 35.52 3.2 48.32 9.92 10.88 6.080 12.8 8.96 12.8 8.96-0.32 1.28-3.84 8-6.4 12.8-2.88 5.44-6.4 11.84-9.6 19.2-5.12 11.84-5.12 21.76 0.32 29.12 8.64 12.16 24.64 10.88 41.6 9.92 13.76-0.96 29.44-2.24 41.6 2.24 4.16 6.72-8.32 30.4-26.56 49.6-6.080 6.4-5.76 16.64 0.96 22.72 6.4 6.080 16.64 5.76 22.72-0.96 10.24-10.88 42.88-48.96 36.16-78.080-2.56-10.88-10.56-19.2-22.080-23.68-18.88-7.040-39.040-5.44-55.040-4.16-2.56 0.32-5.12 0.32-7.68 0.64 1.92-4.16 4.16-8 6.080-11.52 12.48-23.040 19.52-44.16-19.2-64.96-14.72-8-33.28-10.88-49.28-12.48 9.6-10.56 13.76-23.36 11.84-37.12-2.88-22.4-22.080-42.56-46.72-49.28-1.6 0-3.2-0.32-4.48-0.32zM641.28 401.92c-0.96 0-1.92 0-2.88 0.32-8.64 1.6-14.4 9.92-12.8 18.56 4.8 24.96 23.68 45.44 45.76 49.92 13.44 2.56 26.56-0.64 37.76-9.28 0.64 16 2.24 34.88 8.96 50.24 18.24 40 39.36 34.56 63.36 24 3.52-1.6 7.68-3.52 11.84-5.12-0.32 2.56-0.64 5.44-0.96 7.68-2.24 16-5.44 35.84 0.32 55.36 3.52 11.84 11.2 20.48 22.080 23.68 28.16 8.96 68.48-21.12 80.32-30.4 6.72-5.44 8-15.68 2.56-22.4-5.44-7.040-15.68-8-22.4-2.56-20.48 16.64-45.12 27.52-50.56 24.96-4.48-14.72-2.24-30.080 0-43.84 2.56-16.64 4.8-32.64-6.72-42.24-7.040-6.080-16.96-6.72-29.12-2.56-7.68 2.56-14.080 5.44-19.84 8-4.8 2.24-11.52 5.12-13.76 5.12 0-0.32-2.56-2.56-7.36-13.12-5.76-13.12-6.080-33.6-6.4-48.96-0.32-19.2-0.64-34.24-15.040-38.72-14.4-4.16-24 9.6-29.12 17.28-6.080 8.96-12.48 12.48-19.2 11.2-9.28-1.92-18.56-12.8-20.8-24.64-1.92-7.040-8.64-12.48-16-12.48zM560 480c-2.88 0-5.76 0.64-8.32 2.24-7.68 4.48-9.92 14.4-5.44 22.080 97.28 162.24 286.4 257.92 294.72 262.080 8 3.84 17.6 0.64 21.44-7.040s0.64-17.6-7.040-21.44c-1.92-0.96-189.12-96-281.28-249.92-3.52-5.12-8.64-8-14.080-8z" />
<glyph unicode="&#xe902;" glyph-name="email-icon" d="M458.56 411.2l-309.44 264.64c8 2.56 17.28 4.16 26.24 4.16h673.28c8.96 0 18.24-1.6 26.24-4.16l-309.12-264.64c-28.48-24.64-78.72-24.64-107.2 0zM351.040 425.92l-236.16-181.12c-4.48 7.040-6.72 14.4-6.72 22.72v360.96c0 1.92 0 3.2 0.32 4.8l242.56-207.36zM627.84 387.2l223.36-171.2h-678.4l223.36 171.2 12.16-10.24c26.24-22.72 64-35.52 103.68-35.52s77.44 12.8 104 35.52l11.84 10.24zM915.84 628.48v-360.96c0-8.32-2.24-15.68-6.72-22.72l-235.84 180.8 242.24 207.68c0.32-1.6 0.32-2.88 0.32-4.8zM874.88 675.84l-309.12-264.64c-28.48-24.64-78.72-24.64-107.52 0l-309.12 264.64c8 2.56 17.28 4.16 26.24 4.16h673.28c8.96 0 18.24-1.6 26.24-4.16z" />
<glyph unicode="&#xe903;" glyph-name="pdf-icon" d="M719.040 640c-45.12 0-81.92 36.8-81.92 81.6v110.4h-352c-35.2 0-64-28.8-64-64v-640c0-35.2 28.8-64 64-64h448c35.2 0 64 28.8 64 64v512h-78.080zM374.4 454.72c12.48 12.48 32.64 12.48 45.12 0l57.6-57.6v242.88c0 17.6 14.4 32 32 32 17.92 0 32-14.4 32-32v-243.2l57.92 57.92c12.48 12.48 32.64 12.48 45.12 0s12.48-32.96 0-45.44l-112-112h-0.64c-2.88-3.2-6.4-5.44-10.56-7.040-3.52-1.28-7.68-2.24-11.84-2.24-2.24 0-4.48 0.32-6.4 0.64s-3.52 0.96-5.12 1.6c-0.32 0-0.64 0-0.96 0.32-1.92 0.64-3.52 1.92-5.44 2.88-1.6 1.28-3.2 2.56-4.8 3.84l-112 112c-12.48 12.48-12.48 32.96 0 45.44zM685.12 160h-352c-17.6 0-32 14.4-32 32s14.4 32 32 32h352c17.6 0 32-14.4 32-32s-14.4-32-32-32zM733.12 672h64l-128 160v-96c0-35.2 28.8-64 64-64zM508.16 297.28c0.64 0.64 1.28 1.6 2.24 2.24-0.64-0.64-1.28-1.28-1.92-2.24h-0.32z" />
<glyph unicode="&#xe904;" glyph-name="more-left" d="M598.4 432.96l-307.84-307.84c-24.96-24.96-24.96-65.6 0-90.56s65.6-24.96 90.56 0l352 352c12.8 12.8 18.88 29.44 18.56 46.4 0.32 16.64-5.76 33.6-18.56 46.4l-352 352c-12.48 12.48-28.8 18.88-45.12 18.88s-32.64-6.4-45.12-18.88c-24.96-24.96-24.96-65.6 0-90.56l307.52-307.84z" />
<glyph unicode="&#xe905;" glyph-name="trash-icon" d="M799.68 790.72h-131.2c-2.88 0-5.12 1.6-6.080 4.16l-16.64 41.28c-6.72 16.64-22.4 27.84-39.68 27.84h-176.32c-10.24 0-19.84-6.4-24-16.64l-21.12-52.16c-0.96-2.56-3.52-4.16-6.080-4.16h-131.52c-19.2 0-34.56-16.32-34.56-36.48v-62.080c0-6.080 4.8-10.88 10.88-10.88h600c6.080 0 10.88 4.8 10.88 10.88v62.080c0 20.16-15.36 36.48-34.56 36.48zM437.12 827.2h172.8l12.8-36.48h-198.72l12.8 36.48zM229.76 644.48l34.56-475.52c0-40.32 31.040-73.28 69.12-73.28h379.84c38.080 0 69.12 32.64 69.12 73.28l34.56 475.52h-587.2zM395.2 187.2c0-10.24-8.32-18.24-18.24-18.24s-18.24 8.32-18.24 18.24v366.080c0 10.24 8.32 18.24 18.24 18.24s18.24-8.32 18.24-18.24v-365.76zM543.68 187.2c0-10.24-8.32-18.24-18.24-18.24s-18.24 8.32-18.24 18.24v366.080c0 10.24 8.32 18.24 18.24 18.24s18.24-8.32 18.24-18.24v-365.76zM687.68 187.2c0-10.24-8.32-18.24-18.24-18.24s-18.24 8.32-18.24 18.24v366.080c0 10.24 8.32 18.24 18.24 18.24s18.24-8.32 18.24-18.24v-365.76z" />
<glyph unicode="&#xe906;" glyph-name="rate-icon" d="M815.36 137.28l-118.4 393.92-48.96-59.84 31.040-103.36h-136.32l197.12 240.96c1.6-0.32 3.2-0.96 4.8-0.96 9.28 0 18.56 3.84 24.64 11.84l39.36 48c11.2 13.76 9.28 33.92-4.48 45.12s-33.92 9.28-45.12-4.48l-39.36-48c-7.36-8.96-8.64-20.8-4.8-31.040l-213.76-261.12h-140.48l114.24 380.8c9.28 30.72 36.8 33.28 44.8 33.28s35.52-2.56 44.8-33.28l61.12-203.84 48.96 59.84-48.96 162.56c-31.36 104.96-180.48 104.96-211.84 0l-189.12-630.4c-6.080-20.48 9.28-41.28 30.72-41.28h91.52c6.72-18.56 24.32-32 45.12-32s38.4 13.44 45.12 32h165.76c6.72-18.56 24.32-32 45.12-32s38.4 13.44 45.12 32h91.52c21.44 0 36.8 20.8 30.72 41.28zM552 656h-64c-8.96 0-16-7.040-16-16s7.040-16 16-16h64c8.96 0 16 7.040 16 16s-7.040 16-16 16zM552 592h-64c-8.96 0-16-7.040-16-16s7.040-16 16-16h64c8.96 0 16 7.040 16 16s-7.040 16-16 16zM552 528h-64c-8.96 0-16-7.040-16-16s7.040-16 16-16h64c8.96 0 16 7.040 16 16s-7.040 16-16 16z" />
<glyph unicode="&#xe907;" glyph-name="mic-icon" d="M538.88 108.16v107.84c0 0.64 0.32 1.28 0.96 1.28 100.48 13.76 177.6 99.52 177.6 203.84v62.72c0 14.72-12.16 26.88-26.88 26.88v0c-14.72 0-26.88-12.16-26.88-26.88v-54.72c0-80.32-58.56-152.32-138.56-159.36-89.92-7.68-165.44 63.040-165.44 151.36v62.72c0 14.72-12.16 26.88-26.88 26.88v0c-14.72 0-26.88-12.16-26.88-26.88v-62.72c0-104.32 77.12-189.76 177.6-203.84 0.64 0 0.96-0.64 0.96-1.28 0-10.24 0-95.36 0-106.88 0-0.64-0.64-1.28-1.28-1.28h-159.68c-14.72 0-26.88-12.16-26.88-26.88v0c0-14.72 12.16-26.88 26.88-26.88h375.68c14.72 0 26.88 12.16 26.88 26.88v0c0 14.72-12.16 26.88-26.88 26.88h-160.32v0.32zM512 304.96c64.32 0 116.16 51.84 116.16 116.16h-89.28v35.84h62.72c14.72 0 26.88 12.16 26.88 26.88v0c0 14.72-12.16 26.88-26.88 26.88h-62.72v35.84h62.72c14.72 0 26.88 12.16 26.88 26.88v0c0 14.72-12.16 26.88-26.88 26.88h-62.72v35.84h62.72c14.72 0 26.88 12.16 26.88 26.88v0c0 14.72-12.16 26.88-26.88 26.88h-62.72v35.2h89.28c0 86.4-93.12 150.080-184.96 96.64-29.76-17.28-47.68-49.6-47.68-83.84v-316.8c0.32-64.32 52.16-116.16 116.48-116.16v0z" />
<glyph unicode="&#xe908;" glyph-name="hans-icon" d="M587.52 484.8c24.96 0 45.12 20.16 45.12 45.12v120.64c0 24.96-20.16 45.12-45.12 45.12s-45.12-20.16-45.12-45.12v-120.64c0-24.96 20.16-45.12 45.12-45.12zM482.24 485.76c24.96 0 45.12 20.16 45.12 45.12v120.64c0 24.96-20.16 45.12-45.12 45.12s-45.12-20.16-45.12-45.12v-120.64c-0.32-24.64 20.16-45.12 45.12-45.12zM376.64 487.040c24.96 0 45.12 20.16 45.12 45.12v120.64c0 24.96-20.16 45.12-45.12 45.12s-45.12-20.16-45.12-45.12v-120.64c0-24.96 20.16-45.12 45.12-45.12zM858.88 681.92c-5.76 0-70.72-2.56-120.64-45.12-25.92-22.4-48.96-58.56-65.28-90.56h-24.96c-1.28-43.52-19.52-78.72-60.16-78.72-20.8 0-39.68 9.28-53.44 23.68-13.44-14.080-32-22.4-52.16-22.4-20.8 0-39.68 9.28-53.44 23.68-13.44-14.080-32-22.4-52.16-22.4-40 0-57.92 33.92-60.16 76.16l-6.080 97.92-96.64 193.28c-11.2 22.4-38.4 31.36-60.8 20.16s-31.36-38.4-20.16-60.8l84.16-168.32c-4.8-37.76-6.4-71.040-5.44-101.76 0-0.32 0-0.32 0-0.64s0-0.32 0-0.64v0 0c2.56-99.84 31.36-174.4 85.76-221.12 8.32-7.040 17.28-13.12 26.56-18.56v-221.76h263.68v216.64c109.44 51.2 152.64 161.28 175.68 224 1.92 3.52 3.52 7.040 4.48 10.88 15.68 23.68 33.6 45.44 42.88 53.44 24.64 21.12 48 22.4 48 22.4 24.96 0 45.12 20.16 45.12 45.12s-19.84 45.44-44.8 45.44z" />
<glyph unicode="&#xe909;" glyph-name="foot-icon" d="M213.76 120.64c2.56-25.92 7.040-51.52 13.76-76.8l4.8-16.96c9.6-38.080 53.76-48 85.76-38.72l16.96 4.8c32.64 8.32 52.16 41.6 43.84 74.24l-4.8 16.96c-6.72 25.6-16.32 50.24-28.16 73.92l-131.52-36.8-0.64-0.64zM303.040 514.56c-20.16 28.16-27.84 37.44-89.28 33.92-48-2.88-72.96-39.68-80.32-80.64-15.36-87.68 2.24-197.44 61.12-299.2l136 36.8c-29.76 112.32 36.8 162.24-27.52 309.12zM750.4 472.32c-7.36-25.92-16.96-51.2-28.16-75.52l-8-16c-16.64-36.8-63.040-38.4-93.76-23.040l-16 8c-31.040 14.72-44.48 51.84-30.080 82.88l8 16c11.52 24.64 25.6 47.68 42.24 69.44l125.76-61.76zM781.76 527.040l-127.040 60.48c49.28 104.32-37.44 196.48 83.2 299.52v0c24.96 24 62.080 30.72 93.76 16.96 38.72-14.72 64.32-52.16 64.32-93.76-0.64-89.28-38.080-193.6-114.24-283.2v0z" />
<glyph unicode="&#xe90a;" glyph-name="move-icon" d="M545.92 794.24c0-38.527-31.233-69.76-69.76-69.76s-69.76 31.233-69.76 69.76c0 38.527 31.233 69.76 69.76 69.76s69.76-31.233 69.76-69.76zM371.52 517.76c-2.56 0-5.12 0.32-7.68 0.96l-139.84 34.88c-17.28 4.16-27.52 21.76-23.36 38.72 4.16 17.28 21.44 27.52 38.72 23.36l117.76-29.44 57.28 86.080c4.16 6.4 10.88 11.2 18.24 13.12l129.92 34.88c8.96 2.56 18.24 0.96 25.92-4.16l84.16-56 97.92 88c13.12 11.84 33.28 10.88 45.12-2.24s10.88-33.28-2.24-45.12l-116.16-104.64c-10.88-9.92-26.88-10.88-39.040-2.88l-92.8 61.76-104.32-28.16-63.040-94.72c-6.080-9.28-16-14.4-26.56-14.4zM443.004 659.487l127.974 2.547 4.872-244.751-127.974-2.547-4.872 244.751zM650.88 64c-12.16 0-23.68 6.72-29.12 18.56l-104.64 225.6c-1.92 4.16-2.88 8.96-2.88 13.44v332.8c0 17.6 14.4 32 32 32s32-14.4 32-32v-326.080l101.76-219.2c7.36-16 0.32-34.88-15.68-42.56-4.48-1.6-8.96-2.56-13.44-2.56zM476.16 64c-14.080 0-26.88 9.28-30.72 23.68l-60.16 224c-2.56 9.6-0.64 19.52 5.44 27.52l96 128c10.56 14.080 30.72 16.96 44.8 6.4s16.96-30.72 6.4-44.8l-86.72-115.52 56-208.96c4.48-16.96-5.44-34.56-22.72-39.36-2.88-0.64-5.44-0.96-8.32-0.96z" />
<glyph unicode="&#xe90b;" glyph-name="vol-icon" d="M880 64h-105.28c-17.6 0-32 14.4-32 32s14.4 32 32 32h105.28c17.6 0 32-14.4 32-32s-14.4-32-32-32zM880 160h-105.28c-17.6 0-32 14.4-32 32s14.4 32 32 32h105.28c17.6 0 32-14.4 32-32s-14.4-32-32-32zM880 256h-105.28c-17.6 0-32 14.4-32 32s14.4 32 32 32h105.28c17.6 0 32-14.4 32-32s-14.4-32-32-32zM880 352h-105.28c-17.6 0-32 14.4-32 32s14.4 32 32 32h105.28c17.6 0 32-14.4 32-32s-14.4-32-32-32zM880 448h-105.28c-17.6 0-32 14.4-32 32s14.4 32 32 32h105.28c17.6 0 32-14.4 32-32s-14.4-32-32-32zM880 544h-105.28c-17.6 0-32 14.4-32 32s14.4 32 32 32h105.28c17.6 0 32-14.4 32-32s-14.4-32-32-32zM669.76 64h-105.28c-17.6 0-32 14.4-32 32s14.4 32 32 32h105.28c17.6 0 32-14.4 32-32s-14.4-32-32-32zM669.76 160h-105.28c-17.6 0-32 14.4-32 32s14.4 32 32 32h105.28c17.6 0 32-14.4 32-32s-14.4-32-32-32zM669.76 256h-105.28c-17.6 0-32 14.4-32 32s14.4 32 32 32h105.28c17.6 0 32-14.4 32-32s-14.4-32-32-32zM459.52 640h-105.28c-17.6 0-32 14.4-32 32s14.4 32 32 32h105.28c17.6 0 32-14.4 32-32s-14.4-32-32-32zM459.52 736h-105.28c-17.6 0-32 14.4-32 32s14.4 32 32 32h105.28c17.6 0 32-14.4 32-32s-14.4-32-32-32zM459.52 64h-105.28c-17.6 0-32 14.4-32 32s14.4 32 32 32h105.28c17.6 0 32-14.4 32-32s-14.4-32-32-32zM459.52 160h-105.28c-17.6 0-32 14.4-32 32s14.4 32 32 32h105.28c17.6 0 32-14.4 32-32s-14.4-32-32-32zM459.52 256h-105.28c-17.6 0-32 14.4-32 32s14.4 32 32 32h105.28c17.6 0 32-14.4 32-32s-14.4-32-32-32zM459.52 352h-105.28c-17.6 0-32 14.4-32 32s14.4 32 32 32h105.28c17.6 0 32-14.4 32-32s-14.4-32-32-32zM459.52 448h-105.28c-17.6 0-32 14.4-32 32s14.4 32 32 32h105.28c17.6 0 32-14.4 32-32s-14.4-32-32-32zM459.52 544h-105.28c-17.6 0-32 14.4-32 32s14.4 32 32 32h105.28c17.6 0 32-14.4 32-32s-14.4-32-32-32zM249.28 64h-105.28c-17.6 0-32 14.4-32 32s14.4 32 32 32h105.28c17.6 0 32-14.4 32-32s-14.4-32-32-32zM249.28 160h-105.28c-17.6 0-32 14.4-32 32s14.4 32 32 32h105.28c17.6 0 32-14.4 32-32s-14.4-32-32-32zM249.28 256h-105.28c-17.6 0-32 14.4-32 32s14.4 32 32 32h105.28c17.6 0 32-14.4 32-32s-14.4-32-32-32zM249.28 352h-105.28c-17.6 0-32 14.4-32 32s14.4 32 32 32h105.28c17.6 0 32-14.4 32-32s-14.4-32-32-32zM249.28 448h-105.28c-17.6 0-32 14.4-32 32s14.4 32 32 32h105.28c17.6 0 32-14.4 32-32s-14.4-32-32-32zM249.28 544h-105.28c-17.6 0-32 14.4-32 32s14.4 32 32 32h105.28c17.6 0 32-14.4 32-32s-14.4-32-32-32z" />
<glyph unicode="&#xe90c;" glyph-name="pitch-icon" d="M896 345.92c-17.6 0-32 14.4-32 32v128c0 17.6 14.4 32 32 32s32-14.4 32-32v-128c0-17.6-14.4-32-32-32zM128 377.92c-17.6 0-32 14.4-32 32v64c0 17.6 14.4 32 32 32s32-14.4 32-32v-64c0-17.6-14.4-32-32-32zM786.24 297.92c-17.6 0-32 14.4-32 32v224c0 17.6 14.4 32 32 32s32-14.4 32-32v-224c0-17.6-14.4-32-32-32zM237.76 281.92c-17.6 0-32 14.4-32 32v224c0 17.6 14.4 32 32 32s32-14.4 32-32v-224c0-17.6-14.4-32-32-32zM676.48 361.92c-17.6 0-32 14.4-32 32v96c0 17.6 14.4 32 32 32s32-14.4 32-32v-96c0-17.6-14.080-32-32-32zM566.72 265.92c-17.6 0-32 14.4-32 32v288c0 17.6 14.4 32 32 32s32-14.4 32-32v-288c0-17.6-14.080-32-32-32zM457.28 166.080c-17.6 0-32 14.4-32 32v499.84c0 17.6 14.4 32 32 32s32-14.4 32-32v-499.84c0-17.92-14.4-32-32-32zM347.52 249.92c-17.6 0-32 14.4-32 32v304c0 17.6 14.4 32 32 32s32-14.4 32-32v-304c0-17.6-14.4-32-32-32z" />
<glyph unicode="&#xe90d;" glyph-name="out-icon" d="M970.88 450.56l-204.16 171.84c-16.96 14.080-42.56 2.24-42.56-19.84v-102.72h-116.16c-17.6 0-32-14.4-32-32v-64c0-17.6 14.4-32 32-32h116.16v-102.72c0-22.080 25.6-33.92 42.56-19.84l204.16 171.84c9.28 7.68 9.28 21.76 0 29.44zM672 563.84v176c0 17.6-14.4 32-32 32h-160v54.080c0 21.76-19.84 38.080-41.28 34.24l-281.92-51.2c-16.64-2.88-28.8-17.28-28.8-34.24v-677.76c0-16.96 12.16-31.36 28.8-34.24l282.24-51.2c21.44-3.84 41.28 12.48 41.28 34.24v54.080h160c17.6 0 32 14.4 32 32v176h-80v-133.44h-112.32v522.88h112v-133.44h80z" />
<glyph unicode="&#xe90e;" glyph-name="profile-icon" d="M704 676.16c0-103.68-86.080-187.84-192-187.84s-192 84.16-192 187.84 86.080 187.84 192 187.84c105.92 0 192-84.16 192-187.84zM879.040 65.92c9.28 0 16.96 7.68 16.96 16.96v170.88c0 28.16-14.4 56.32-38.4 75.2-52.8 42.24-120 70.4-187.2 89.28-48 13.76-100.8 23.36-158.4 23.36-52.8 0-105.6-9.28-158.4-23.36-67.2-18.88-134.4-51.52-187.2-89.28-24-18.88-38.4-47.040-38.4-75.2v-170.88c0-9.28 7.68-16.96 16.96-16.96h734.080z" />
<glyph unicode="&#xe90f;" glyph-name="cool-icon" d="M512 848c-220.8 0-400-179.2-400-400s179.2-400 400-400 400 179.2 400 400-179.2 400-400 400zM512 112c-185.6 0-336 150.4-336 336s150.4 336 336 336 336-150.4 336-336c0-185.6-150.4-336-336-336zM512 208c-21.44 0-131.84 4.8-204.8 102.4-5.44 7.040-3.84 16.96 3.2 22.4s16.96 3.84 22.4-3.2c65.28-87.040 167.68-89.6 179.2-89.6 108.8 0 172.16 80.32 179.2 89.6 5.44 7.040 15.36 8.64 22.4 3.2s8.32-15.36 3.2-22.4c-12.8-16.96-83.2-102.4-204.8-102.4zM815.040 551.68l-128.32 27.52c-24.64 5.44-49.6 5.44-74.56 0.64l-77.44-15.040c-15.040-2.88-30.4-2.88-45.76 0l-77.44 15.040c-24.64 4.8-49.6 4.48-74.56-0.64l-128.32-27.52c-8.64-1.92-14.080-10.24-12.16-18.88s10.56-14.080 18.88-12.16l16.96 3.52c5.76-43.84 29.76-133.76 127.040-142.72 106.24-9.6 125.12 109.44 128.32 151.68 16-2.56 32-2.56 48 0 3.2-42.56 22.080-161.6 128.32-151.68 97.28 8.96 121.28 98.88 127.040 142.72l16.96-3.52c1.28-0.32 2.24-0.32 3.52-0.32 7.36 0 14.080 5.12 15.68 12.8 2.24 8-3.52 16.64-12.16 18.56z" />
<glyph unicode="&#xe910;" glyph-name="eyes-icon" d="M921.6 475.2c-29.76 36.16-104.32 114.24-191.68 114.24s-161.92-78.080-191.68-114.24c-8.64-10.56-8.64-25.28 0-35.84 29.76-36.16 104.32-114.24 191.68-114.24s161.92 78.080 191.68 114.24c8.64 10.88 8.64 25.28 0 35.84zM571.84 457.28c0 0 37.44 53.44 91.2 82.88-24.32-19.52-39.68-49.28-39.68-82.88s15.36-63.36 39.68-82.88c-53.76 29.44-91.2 82.88-91.2 82.88zM796.48 374.72c24.32 19.52 39.68 49.28 39.68 82.88s-15.36 63.36-39.68 82.88c53.76-29.44 91.2-82.88 91.2-82.88s-37.12-53.76-91.2-82.88zM485.76 475.2c-29.76 36.16-104.32 114.24-191.68 114.24s-161.92-78.080-191.68-114.24c-8.64-10.56-8.64-25.28 0-35.84 29.76-36.16 104.32-114.24 191.68-114.24s161.92 78.080 191.68 114.24c8.64 10.88 8.64 25.28 0 35.84zM136 457.28c0 0 37.44 53.44 91.2 82.88-24.32-19.52-39.68-49.28-39.68-82.88s15.36-63.36 39.68-82.88c-53.76 29.44-91.2 82.88-91.2 82.88zM360.96 374.72c24.32 19.52 39.68 49.28 39.68 82.88s-15.36 63.36-39.68 82.88c53.76-29.44 91.2-82.88 91.2-82.88s-37.44-53.76-91.2-82.88z" />
<glyph unicode="&#xe911;" glyph-name="watch-icon" d="M883.2 466.56c-57.6 70.080-201.92 221.44-371.2 221.44s-313.6-151.36-371.2-221.44c-16.96-20.48-16.96-48.64 0-69.12 57.6-69.76 202.24-221.44 371.2-221.44s313.6 151.36 371.2 221.44c16.96 20.48 16.96 48.64 0 69.12zM205.76 432c0 0 72.64 103.68 176.96 160.64-46.72-37.76-76.8-95.68-76.8-160.64s30.080-122.56 76.8-160.64c-104.32 56.96-176.96 160.64-176.96 160.64zM641.28 271.36c46.72 37.76 76.8 95.68 76.8 160.64s-30.080 122.88-76.8 160.64c104.32-56.96 176.96-160.64 176.96-160.64s-72.64-103.68-176.96-160.64z" />
<glyph unicode="&#xe912;" glyph-name="arrow-left-icon" d="M896 487.36h-691.2l137.92 137.92c12.48 12.48 12.48 32.64 0 45.12s-32.64 12.48-45.12 0l-192-192c-6.4-6.080-9.6-14.4-9.6-22.72 0 0 0-0.32 0-0.32s0-0.32 0-0.32c0-8.32 2.88-16.64 9.28-23.040l192-192c6.4-6.4 14.4-9.28 22.72-9.28s16.32 3.2 22.72 9.28c12.48 12.48 12.48 32.64 0 45.12l-137.92 138.24h691.2c17.6 0 32 14.4 32 32s-14.4 32-32 32z" />
<glyph unicode="&#xe913;" glyph-name="talk-icon" d="M832 704h-640c-35.2 0-64-28.8-64-64v-384c0-35.2 28.8-64 64-64h374.4l201.6-128-25.6 128h89.6c35.2 0 64 28.8 64 64v384c0 35.2-28.8 64-64 64zM320 400c-26.56 0-48 21.44-48 48s21.44 48 48 48 48-21.44 48-48-21.44-48-48-48zM512 400c-26.56 0-48 21.44-48 48s21.44 48 48 48 48-21.44 48-48-21.44-48-48-48zM704 400c-26.56 0-48 21.44-48 48s21.44 48 48 48 48-21.44 48-48-21.44-48-48-48z" />
<glyph unicode="&#xe914;" glyph-name="img-icon" d="M864 768h-704c-35.2 0-64-28.8-64-64v-512c0-35.2 28.8-64 64-64h704c35.2 0 64 28.8 64 64v512c0 35.2-28.8 64-64 64zM864 177.28h-704v541.44h704v-541.44zM818.24 231.68h-550.080c-9.92 0-16 10.56-11.2 19.2l211.84 366.72c5.12 8.64 17.28 8.64 22.4 0l117.44-203.52 52.16 90.24c5.12 8.64 17.28 8.64 22.4 0l146.24-253.44c4.8-8.64-1.28-19.2-11.2-19.2zM320 592c0-26.51-21.49-48-48-48s-48 21.49-48 48c0 26.51 21.49 48 48 48s48-21.49 48-48z" />
<glyph unicode="&#xe915;" glyph-name="share-icon" d="M784 304c-35.84 0-67.2-16.96-87.68-43.2l-252.8 118.080c2.88 11.84 4.48 24.32 4.48 37.12 0 16.96-2.88 33.6-8 48.96l272.64 153.28c19.52-16 44.16-26.24 71.36-26.24 61.76 0 112 50.24 112 112s-50.24 112-112 112-112-50.24-112-112c0-11.2 2.24-22.080 5.44-32.32l-268.8-151.040c-29.44 33.6-72.32 55.36-120.64 55.36-88.32 0-160-71.68-160-160s71.68-160 160-160c52.8 0 99.2 25.6 128.32 64.96l256.64-119.68c-0.32-3.2-0.96-6.080-0.96-9.28 0-61.76 50.24-112 112-112s112 50.24 112 112-50.24 112-112 112zM285.12 352c-35.2 1.6-62.72 31.36-61.12 66.88 1.6 35.2 31.36 62.72 66.88 61.12 22.72-0.96 42.24-14.080 52.8-32.64 5.76-9.92 8.96-21.76 8.32-34.24-0.32-8.64-2.56-16.96-5.76-24.32-10.88-22.72-34.24-38.080-61.12-36.8z" />
<glyph unicode="&#xe916;" glyph-name="arrows-2-icon" d="M810.88 498.56c27.84 21.76 68.16 16.64 89.92-11.52 8.96-11.52 13.12-25.28 13.12-39.040 0-19.2-8.32-38.080-24.64-50.56l-352-272c-8.32-6.080-17.28-10.24-26.88-11.84-1.92-0.32-3.52-0.64-5.44-0.96-5.12-0.96-10.56-0.64-16 0-11.52 0.96-22.4 5.44-32 12.8l-352 272c-28.16 21.44-33.28 61.76-11.52 89.6 21.44 28.16 61.76 33.28 89.6 11.52l313.92-242.56 313.92 242.56zM810.88 770.56c27.84 21.76 68.16 16.64 89.92-11.52 8.96-11.52 13.12-25.28 13.12-39.040 0-19.2-8.32-38.080-24.64-50.56l-352-272c-8.32-6.080-17.28-10.24-26.88-11.84-1.92-0.32-3.52-0.64-5.44-0.96-5.12-0.96-10.56-0.64-16 0-11.52 0.96-22.4 5.44-32 12.8l-352 272c-28.16 21.44-33.28 61.76-11.52 89.6 21.44 28.16 61.76 33.28 89.6 11.52l313.92-242.56 313.92 242.56z" />
<glyph unicode="&#xe917;" glyph-name="more-right" d="M425.6 463.040l307.84 307.84c24.96 24.96 24.96 65.6 0 90.56s-65.6 24.96-90.56 0l-352-352c-12.8-12.8-18.88-29.44-18.56-46.4-0.32-16.64 5.76-33.6 18.56-46.4l352-352c12.48-12.48 28.8-18.88 45.12-18.88s32.64 6.4 45.12 18.88c24.96 24.96 24.96 65.6 0 90.56l-307.52 307.84z" />
<glyph unicode="&#xe918;" glyph-name="Exclamation-mark" d="M512 304c35.2 0 64 28.8 64 64v512c0 35.2-28.8 64-64 64s-64-28.8-64-64v-512c0-35.2 28.8-64 64-64zM512 256c-53.12 0-96-42.88-96-96s42.88-96 96-96 96 42.88 96 96-42.88 96-96 96z" />
<glyph unicode="&#xe919;" glyph-name="x-icon" d="M602.56 448l274.88 274.88c24.96 24.96 24.96 65.6 0 90.56s-65.6 24.96-90.56 0l-274.88-274.88-274.88 274.56c-24.96 24.96-65.6 24.96-90.56 0s-24.96-65.6 0-90.56l274.88-274.56-274.88-274.88c-24.96-24.96-24.96-65.6 0-90.56 12.8-12.16 29.12-18.56 45.44-18.56s32.64 6.4 45.12 18.88l274.88 274.56 274.88-274.88c12.48-12.16 28.8-18.56 45.12-18.56s32.64 6.4 45.12 18.88c24.96 24.96 24.96 65.6 0 90.56l-274.56 274.56z" />
<glyph unicode="&#xe91a;" glyph-name="plus-icon" d="M832 512h-256v256c0 35.2-28.8 64-64 64s-64-28.8-64-64v-256h-256c-35.2 0-64-28.8-64-64s28.8-64 64-64h256v-256c0-35.2 28.8-64 64-64s64 28.8 64 64v256h256c35.2 0 64 28.8 64 64s-28.8 64-64 64z" />
<glyph unicode="&#xe91b;" glyph-name="heart-icon" d="M804.8 757.44c-120 82.56-211.52 44.8-292.48-103.040-80.96 147.84-172.48 185.6-292.48 103.040-120.96-83.2-103.36-267.52 32.96-402.56 131.84-130.88 259.84-259.2 259.84-259.2s96 96.32 259.84 259.2c136 135.040 153.6 319.36 32.96 402.56zM764.16 440h-32l-37.12-101.44c-2.24-6.4-9.28-10.56-15.68-10.56-7.040 0-12.8 5.12-14.72 11.84l-63.040 229.12-95.36-286.080c-2.24-6.4-8-10.56-14.4-10.88h-0.64c-6.4 0-12.16 3.84-14.72 9.6l-104 244.16-41.6-104c-2.56-6.080-8.32-9.92-14.72-9.92h-56c-8.96 0-16 7.040-16 16s7.040 16 16 16h45.12l51.84 129.92c2.56 6.080 8.32 9.92 14.72 9.92v0c6.4 0 12.16-3.84 14.72-9.6l102.4-240.96 98.56 296c2.24 6.4 8.32 10.88 15.040 10.88h0.32c7.040 0 13.12-5.12 15.040-11.84l63.68-231.68 23.68 64.96c2.24 6.4 8.32 10.56 15.040 10.56h43.2c8.96 0 16-7.040 16-16s-7.040-16-16-16z" />
<glyph unicode="&#xe91c;" glyph-name="stress-icon" d="M608 496c-3.2 0-6.080 0.96-8.96 2.56-7.36 4.8-9.28 14.72-4.48 22.080 22.080 32.96 47.36 49.92 74.88 49.92 46.080 0 78.4-47.68 79.68-49.92 4.8-7.36 2.88-17.28-4.48-22.080s-17.28-2.88-22.080 4.48c-6.72 9.92-29.12 35.52-53.12 35.52v0c-16.32 0-32.64-12.16-48.32-35.52-3.2-4.48-8-7.040-13.44-7.040zM288 496c-3.2 0-6.080 0.96-8.96 2.56-7.36 4.8-9.28 14.72-4.48 22.080 22.080 32.96 47.36 49.92 74.88 49.92 46.080 0 78.4-47.68 79.68-49.92 4.8-7.36 2.88-17.28-4.48-22.080s-17.28-2.88-22.080 4.48c-6.72 9.92-29.12 35.52-53.12 35.52v0c-16.32 0-32.64-12.16-48.32-35.52-3.2-4.48-8-7.040-13.44-7.040zM336 256c-4.16 0-8.32 1.6-11.2 4.8-6.080 6.4-6.080 16.32 0 22.72 2.88 2.88 70.080 68.8 203.2 68.8s186.24-61.12 188.16-63.68c5.76-6.72 4.8-16.96-2.24-22.4-6.72-5.44-16.64-4.8-22.4 1.92v0s-46.080 52.16-163.84 52.16-180.16-58.88-180.8-59.2c-3.2-3.2-7.040-4.48-11.2-4.48zM512 848c-85.44 0-164.8-26.88-229.76-72.64-14.72 22.080-27.84 39.36-30.72 43.52l-9.92 13.12-10.56-12.48c-8.96-10.88-88-106.56-88-152.64 0-14.72 3.84-29.12 10.24-41.6-26.24-53.44-41.28-113.6-41.28-177.28 0-220.8 179.2-400 400-400s400 179.2 400 400-179.2 400-400 400zM169.28 666.88c0 24.64 40 83.84 71.36 122.88 6.72-9.28 13.76-19.84 20.48-30.4 12.48-18.56 24.32-38.72 32.64-56 7.040-14.72 11.52-27.84 11.52-36.48 0-35.84-30.72-64.64-68.16-64.64-7.68 0-15.040 1.28-21.76 3.52-23.36 7.36-40.96 26.56-45.12 50.24-0.64 3.52-0.96 7.040-0.96 10.88zM512 112c-185.6 0-336 150.4-336 336 0 47.68 9.92 92.8 28.16 133.76 10.24-3.84 21.44-5.76 32.96-5.76 51.84 0 94.080 40.64 94.080 90.88 0 14.4-6.72 33.28-16.64 52.8 55.36 40.32 123.52 64.32 197.44 64.32 185.6 0 336-150.4 336-336s-150.4-336-336-336z" />
<glyph unicode="&#xe91d;" glyph-name="very-stress-icon" d="M512 880c-220.8 0-400-179.2-400-400s179.2-400 400-400 400 179.2 400 400-179.2 400-400 400zM512 144c-185.6 0-336 150.4-336 336s150.4 336 336 336 336-150.4 336-336-150.4-336-336-336zM368 256c0 79.68 64.32 144 144 144s144-64.32 144-144h-288zM656 432c-2.56 0-5.44 0.64-8 1.92l-85.44 48c-5.12 2.88-8 8.32-8 14.080s3.2 11.2 8 14.080l85.44 48c7.68 4.16 17.28 1.6 21.76-6.080s1.6-17.6-6.080-21.76l-60.48-33.92 60.48-33.92c7.68-4.48 10.56-14.080 6.080-21.76-2.88-5.12-8.32-8-14.080-8zM368 432c-5.44 0-10.88 2.88-14.080 8-4.48 7.68-1.6 17.6 6.080 21.76l60.48 33.92-60.48 33.92c-7.68 4.48-10.56 14.080-6.080 21.76 4.16 7.68 14.080 10.56 21.76 6.080l85.44-48c5.12-2.88 8-8.32 8-14.080s-3.2-11.2-8-14.080l-85.44-48c-2.56-1.28-5.12-1.92-8-1.92zM666.56 616c-75.52 0-101.12 52.16-102.080 54.72-3.84 8 0 17.6 7.68 21.12 8 3.84 17.28 0.32 21.12-7.68 0.96-2.24 25.28-48.96 104.96-33.28 8.32 1.6 16.96-3.84 18.88-12.48 1.6-8.64-3.84-16.96-12.48-18.88-13.76-2.88-26.56-3.84-38.080-3.84zM328 608c-9.92-0.96-16.32 7.040-16.32 16s7.040 16 16 16v0c81.28 0 96 50.88 96.32 53.12 2.24 8.64 11.2 13.44 19.52 11.52 8.64-2.24 13.76-10.56 11.52-19.2-0.64-3.2-20.16-77.12-127.36-77.12z" />
<glyph unicode="&#xe91e;" glyph-name="more-eye-icon" d="M921.6 470.4c-29.76 36.16-104.32 114.24-191.68 114.24s-161.92-78.080-191.68-114.24c-8.64-10.56-8.64-24.96 0-35.52 29.76-36.16 104.32-114.24 191.68-114.24s161.92 78.080 191.68 114.24c8.64 10.56 8.64 24.96 0 35.52zM663.040 369.92c-53.76 29.44-91.2 82.88-91.2 82.88s37.44 53.44 91.2 82.56c-24-19.2-39.36-49.28-39.36-82.56s15.36-63.36 39.36-82.88zM726.4 420.8c-17.6 0.64-31.040 15.68-30.4 33.28 0.96 17.6 15.68 31.36 33.6 30.72 17.6-0.96 31.040-16 30.4-33.6-0.96-17.6-15.68-31.36-33.6-30.4zM796.48 369.92c24.32 19.52 39.68 49.28 39.68 82.88s-15.36 63.36-39.68 82.56c54.080-29.12 91.52-82.56 91.52-82.56s-37.44-53.44-91.52-82.88zM485.76 470.4c-29.76 36.16-104.32 114.24-191.68 114.24s-161.92-78.080-191.68-114.24c-8.64-10.56-8.64-24.96 0-35.52 29.76-36.16 104.32-114.24 191.68-114.24s161.92 78.080 191.68 114.24c8.64 10.56 8.64 24.96 0 35.52zM227.52 369.92c-54.080 29.44-91.52 82.88-91.52 82.88s37.44 53.44 91.52 82.56c-24.32-19.2-39.68-49.28-39.68-82.56s15.36-63.36 39.68-82.88zM294.4 416c-17.6 0.96-31.040 15.68-30.4 33.6 0.96 17.6 15.68 31.040 33.6 30.4 17.6-0.96 31.040-15.68 30.4-33.6-0.96-17.6-15.68-31.040-33.6-30.4zM360.96 369.92c24 19.52 39.36 49.28 39.36 82.88s-15.36 63.36-39.36 82.56c53.76-29.12 91.2-82.56 91.2-82.56s-37.44-53.44-91.2-82.88z" />
<glyph unicode="&#xe91f;" glyph-name="more-watch-icon" d="M883.2 466.56c-57.6 70.080-201.92 221.44-371.2 221.44s-313.6-151.36-371.2-221.44c-16.96-20.48-16.96-48.64 0-69.12 57.6-70.080 201.92-221.44 371.2-221.44s313.6 151.36 371.2 221.44c16.96 20.48 16.96 48.64 0 69.12zM382.72 271.36c-104.32 56.96-176.96 160.64-176.96 160.64s72.64 103.68 176.96 160.64c-47.040-37.76-76.8-95.68-76.8-160.64s29.76-122.56 76.8-160.64zM512 352c-53.12 0-96 42.88-96 96s42.88 96 96 96 96-42.88 96-96-42.88-96-96-96zM641.28 271.36c47.040 38.080 76.8 95.68 76.8 160.64s-29.76 122.88-76.8 160.64c104.32-56.96 176.96-160.64 176.96-160.64s-72.64-103.68-176.96-160.64z" />
<glyph unicode="&#xe920;" glyph-name="icon-22" d="M425.6 463.040l307.84 307.84c24.96 24.96 24.96 65.6 0 90.56s-65.6 24.96-90.56 0l-352-352c-12.8-12.8-18.88-29.44-18.56-46.4-0.32-16.64 5.76-33.6 18.56-46.4l352-352c12.48-12.48 28.8-18.88 45.12-18.88s32.64 6.4 45.12 18.88c24.96 24.96 24.96 65.6 0 90.56l-307.52 307.84z" />
<glyph unicode="&#xe921;" glyph-name="webcam" d="M512 656c-70.72 0-128-57.28-128-128s57.28-128 128-128 128 57.28 128 128c0 70.72-57.28 128-128 128zM512 464c-35.2 0-64 28.8-64 64s28.8 64 64 64 64-28.8 64-64c0-35.2-28.8-64-64-64zM704 160h-128v71.040c136.96 29.44 240 151.36 240 296.96 0 167.68-136.32 304-304 304s-304-136.32-304-304c0-145.6 103.040-267.52 240-296.96v-71.040h-128c-35.2 0-64-28.8-64-64s28.8-64 64-64h384c35.2 0 64 28.8 64 64s-28.8 64-64 64zM512 784c8.96 0 16-7.040 16-16 0-8.64-7.040-16-16-16s-16 7.36-16 16c0 8.96 7.040 16 16 16zM320 528c0 105.92 86.080 192 192 192s192-86.080 192-192c0-105.92-86.080-192-192-192s-192 86.080-192 192z" />
<glyph unicode="&#xe922;" glyph-name="prontal" d="M933.44 368h-32v432h32c8.96 0 16 7.040 16 16s-7.36 16-16 16h-389.44v16c0 8.96-7.040 16-16 16s-16-7.040-16-16v-16h-410.56c-8.96 0-16-7.040-16-16s7.040-16 16-16h32v-432h-32c-8.96 0-16-7.040-16-16s7.040-16 16-16h381.44l-191.36-246.080c-5.44-7.040-4.16-16.96 2.88-22.4 2.56-2.56 6.080-3.52 9.6-3.52 4.8 0 9.6 2.24 12.48 6.080l195.52 251.2v-241.28c0-8.96 7.040-16 16-16s16 7.040 16 16v241.28l195.52-251.2c2.88-3.84 7.68-6.080 12.48-6.080 3.52 0 7.040 0.96 9.92 3.52 7.040 5.44 8.32 15.36 2.88 22.4l-191.36 246.080h360.32c8.96 0 16 7.040 16 16s-7.68 16-16.32 16zM197.44 411.84v345.6h640v-345.28h-640z" />
<glyph unicode="&#xe923;" glyph-name="comp" d="M1025.92 69.44l-98.88 272c-2.24 6.4-8.32 10.56-15.040 10.56 8.96 0 16 7.040 16 16v448c0 8.96-7.040 16-16 16h-768c-8.96 0-16-7.040-16-16v-448c0-8.96 7.040-16 16-16-6.72 0-12.8-4.16-15.040-10.56l-98.88-272c-1.92-4.8-0.96-10.24 1.92-14.72 2.88-4.16 8-6.72 13.12-6.72h965.76c5.12 0 10.24 2.56 13.12 6.72 2.88 4.48 3.84 9.92 1.92 14.72zM160 800h736v-416h-736v416zM67.84 80l87.36 240h745.6l87.36-240h-920.32zM456.96 269.76l-51.52-141.76h504l-51.84 141.76zM149.44 128h192l51.52 141.76h-192z" />
</font>
</defs>
</svg>
