<svg width="57" height="56" xmlns="http://www.w3.org/2000/svg" xmlns:xlink="http://www.w3.org/1999/xlink" xml:space="preserve" overflow="hidden"><defs><clipPath id="clip0"><rect x="238" y="564" width="57" height="56"/></clipPath></defs><g clip-path="url(#clip0)" transform="translate(-238 -564)"><path d="M44.9167 50.3533C45.2388 50.3537 45.5003 50.0928 45.5006 49.7706 45.5008 49.5338 45.358 49.3204 45.1389 49.2304 39.6708 46.9606 34.6975 43.6467 30.4972 39.4742 24.4819 33.5749 17.8984 23.3257 20.5141 7.93333 20.5158 7.93059 20.5194 7.92977 20.5221 7.93147 20.5229 7.93193 20.5235 7.93257 20.524 7.93333L28.1709 15.5791C28.4027 15.8029 28.7719 15.7965 28.9957 15.5647 29.2141 15.3387 29.2141 14.9803 28.9957 14.7542L20.2458 6.00425C20.018 5.77653 19.6487 5.77653 19.4209 6.00425L10.6709 14.7542C10.4471 14.986 10.4535 15.3553 10.6853 15.5791 10.9113 15.7974 11.2697 15.7974 11.4958 15.5791L19.3573 7.7175C19.3596 7.71517 19.3632 7.71511 19.3656 7.71732 19.367 7.71872 19.3677 7.72077 19.3672 7.72275 16.6582 23.6186 23.4634 34.2102 29.6782 40.3083 33.9862 44.586 39.0867 47.9829 44.6944 50.309 44.7649 50.338 44.8404 50.3531 44.9167 50.3533Z" fill="#A999E5" transform="matrix(-1.83697e-16 -1 1.01786 -1.86977e-16 238 620)"/></g></svg>