<svg width="81" height="80" xmlns="http://www.w3.org/2000/svg" xmlns:xlink="http://www.w3.org/1999/xlink" xml:space="preserve" overflow="hidden"><defs><clipPath id="clip0"><rect x="363" y="504" width="81" height="80"/></clipPath><clipPath id="clip1"><path d="M363.856 549.878 409.486 583.524 443.132 537.895 397.502 504.249Z" fill-rule="evenodd" clip-rule="evenodd"/></clipPath><clipPath id="clip2"><path d="M363.856 549.878 409.486 583.524 443.132 537.895 397.502 504.249Z" fill-rule="evenodd" clip-rule="evenodd"/></clipPath><clipPath id="clip3"><path d="M363.856 549.878 409.486 583.524 443.132 537.895 397.502 504.249Z" fill-rule="evenodd" clip-rule="evenodd"/></clipPath></defs><g clip-path="url(#clip0)" transform="translate(-363 -504)"><g clip-path="url(#clip1)"><g clip-path="url(#clip2)"><g clip-path="url(#clip3)"><path d="M45.4724 50.9764C45.7986 50.9767 46.0633 50.7126 46.0636 50.3864 46.0638 50.1467 45.9192 49.9306 45.6974 49.8396 40.1617 47.5417 35.1268 44.1868 30.8746 39.9626 24.7848 33.9904 18.1199 23.6144 20.7679 8.0315 20.7696 8.02872 20.7733 8.02789 20.7761 8.02961 20.7768 8.03008 20.7775 8.03073 20.778 8.0315L28.5195 15.7719C28.7541 15.9984 29.1279 15.9919 29.3545 15.7573 29.5756 15.5285 29.5756 15.1657 29.3545 14.9368L20.4963 6.07854C20.2657 5.848 19.8918 5.848 19.6612 6.07854L10.803 14.9368C10.5764 15.1714 10.5829 15.5453 10.8175 15.7719 11.0463 15.9929 11.4092 15.9929 11.638 15.7719L19.5968 7.81299C19.5991 7.81063 19.6028 7.81057 19.6052 7.81282 19.6067 7.81423 19.6073 7.8163 19.6069 7.81831 16.8644 23.9108 23.7537 34.6335 30.0455 40.8071 34.4068 45.1377 39.5704 48.5766 45.2474 50.9315 45.3188 50.9609 45.3953 50.9761 45.4724 50.9764Z" fill="#A999E5" transform="matrix(0.804851 0.593477 0.593477 -0.804851 363.856 549.878)"/></g></g></g></g></svg>