<svg width="279" height="279" xmlns="http://www.w3.org/2000/svg" xmlns:xlink="http://www.w3.org/1999/xlink" xml:space="preserve" overflow="hidden"><defs><clipPath id="clip0"><rect x="1504" y="1662" width="279" height="279"/></clipPath></defs><g clip-path="url(#clip0)" transform="translate(-1504 -1662)"><path d="M1713.47 1755.16 1713.47 1755.16C1707.03 1751.78 1702.88 1757.91 1699.51 1764.36L1685.04 1780.93 1685.04 1780.93C1682.53 1785.69 1678.33 1789.31 1673.27 1790.95 1671.9 1791.41 1674.96 1790.59 1673.27 1790.95L1687.73 1709.86C1688.87 1704.82 1686.41 1699.51 1681.67 1697.59 1675.55 1695.12 1668.98 1698.73 1667.57 1704.87L1651.28 1775.48 1651.28 1698.28C1651.28 1692.6 1647.31 1687.52 1641.74 1686.65 1634.58 1685.51 1628.42 1691 1628.42 1697.96L1628.42 1778.51 1610.26 1703.49C1609.02 1698.46 1604.46 1694.84 1599.3 1695.26 1592.73 1695.8 1588.49 1701.98 1589.95 1708.12L1607.93 1782.44 1583.84 1735.94C1581.65 1731.69 1576.67 1729.44 1572.16 1730.95 1566.36 1732.88 1563.9 1739.42 1566.59 1744.64L1585.43 1780.98 1585.43 1780.98C1585.43 1780.98 1588.9 1835.76 1600.54 1848.3 1612.17 1860.79 1611.76 1856.63 1610.12 1871.64 1608.48 1886.65 1610.12 1917.5 1610.12 1917.5L1672.49 1917.5 1674 1858.64 1674 1858.64C1674 1858.64 1703.93 1810.04 1706.72 1796.4L1706.72 1796.4 1721.45 1768.35C1724.6 1762.35 1720.27 1755.12 1713.51 1755.12Z" stroke="#A999E5" stroke-width="6.875" stroke-miterlimit="8" fill="none" fill-rule="evenodd"/><path d="M1594 1883.5C1594 1878.25 1598.25 1874 1603.5 1874L1676.5 1874C1681.75 1874 1686 1878.25 1686 1883.5L1686 1883.5C1686 1888.75 1681.75 1893 1676.5 1893L1603.5 1893C1598.25 1893 1594 1888.75 1594 1883.5Z" fill="#F0CB7F" fill-rule="evenodd"/></g></svg>