<svg width="423" height="423" xmlns="http://www.w3.org/2000/svg" xmlns:xlink="http://www.w3.org/1999/xlink" overflow="hidden"><defs><clipPath id="clip0"><rect x="2474" y="1239" width="423" height="423"/></clipPath><clipPath id="clip1"><rect x="2549" y="1238" width="273" height="425"/></clipPath><clipPath id="clip2"><rect x="2549" y="1238" width="273" height="425"/></clipPath><clipPath id="clip3"><rect x="2549" y="1238" width="273" height="425"/></clipPath></defs><g clip-path="url(#clip0)" transform="translate(-2474 -1239)"><g clip-path="url(#clip1)"><g clip-path="url(#clip2)"><g clip-path="url(#clip3)"><path d="M167.613 40.2738C159.424 25.7351 150.4 12.8676 141.209 1.504 139.705-0.501333 136.697-0.501333 135.026 1.504 125.668 12.8676 116.811 25.7351 108.622 40.2738 117.312 45.2871 127.339 48.4622 138.201 48.4622 149.063 48.4622 158.923 45.2871 167.78 40.2738Z" fill="#A999E5" transform="matrix(1.00103 0 0 1 2550 1245.12)"/><path d="M233.621 248.829 201.536 211.061C201.536 211.061 200.533 209.223 200.701 208.221 205.045 160.26 200.701 101.102 169.785 43.616 160.427 48.9636 149.732 52.4729 138.201 52.4729 126.67 52.4729 115.808 49.1307 106.45 43.616 75.5342 100.935 71.1894 160.092 75.5342 208.221 75.5342 209.223 75.3671 210.226 74.6987 211.061L42.6133 248.661C42.6133 248.661 41.6107 250.5 41.6107 251.502L47.9609 327.705C48.128 329.71 49.7991 331.381 51.8045 331.381L73.5289 331.381C75.5342 331.381 77.2054 329.877 77.3725 327.872L83.5556 279.577 88.2347 276.903C90.4071 284.423 92.4125 291.108 94.2507 296.121L97.0916 296.121 87.0649 326.034C86.2294 328.541 88.0676 331.214 90.7414 331.214L98.4285 331.214C90.4071 350.265 81.0489 373.995 83.5556 376 85.8951 377.838 114.471 360.626 114.471 360.626 117.312 359.289 120.654 360.626 121.49 363.801L133.355 406.916C134.692 411.762 141.71 411.762 143.047 406.916L154.912 363.801C155.748 360.793 159.09 359.289 161.931 360.626 161.931 360.626 190.173 377.671 192.846 376 194.685 374.83 185.326 350.599 177.472 331.214L185.493 331.214C188.167 331.214 190.005 328.541 189.17 326.034L179.143 296.121 181.984 296.121C183.655 290.941 185.828 284.423 188 276.903L192.679 279.577 198.862 327.872C199.197 329.877 200.868 331.381 202.706 331.381L224.43 331.381C226.436 331.381 228.107 329.877 228.274 327.705L234.624 251.502C234.624 250.5 234.457 249.497 233.621 248.661ZM113.468 295.453C113.468 294.45 114.304 293.447 115.474 293.447L160.427 293.447C161.596 293.447 162.599 294.45 162.599 295.453 162.599 296.622 161.596 297.625 160.427 297.625L115.474 297.625C114.304 297.625 113.468 296.622 113.468 295.453ZM138.034 94.4178C152.572 94.4178 164.27 106.283 164.27 120.821 164.27 135.36 152.572 147.058 138.034 147.058 123.495 147.058 111.63 135.36 111.63 120.821 111.63 106.283 123.495 94.4178 138.034 94.4178ZM171.289 352.437 148.729 341.241 137.867 380.345 127.004 341.241 104.444 352.437 112.132 331.549 163.268 331.549 170.955 352.437Z" fill="#A999E5" transform="matrix(1.00103 0 0 1 2550 1245.12)"/><path d="M39.7725 136.864C39.7725 147.847 30.8691 156.75 19.8862 156.75 8.90337 156.75 9.56218e-07 147.847 9.56218e-07 136.864 9.56218e-07 125.881 8.90337 116.978 19.8862 116.978 30.8691 116.978 39.7725 125.881 39.7725 136.864Z" fill="#A999E5" transform="matrix(1.00103 0 0 1 2550 1245.12)"/><path d="M264.704 219.417C264.704 224.678 260.439 228.942 255.179 228.942 249.918 228.942 245.653 224.678 245.653 219.417 245.653 214.156 249.918 209.892 255.179 209.892 260.439 209.892 264.704 214.156 264.704 219.417Z" fill="#A999E5" transform="matrix(1.00103 0 0 1 2550 1245.12)"/><path d="M246.823 366.976C246.823 375.098 240.239 381.682 232.117 381.682 223.996 381.682 217.412 375.098 217.412 366.976 217.412 358.854 223.996 352.27 232.117 352.27 240.239 352.27 246.823 358.854 246.823 366.976Z" fill="#A999E5" transform="matrix(1.00103 0 0 1 2550 1245.12)"/><path d="M221.589 19.2178C221.589 24.6631 217.175 29.0773 211.73 29.0773 206.285 29.0773 201.87 24.6631 201.87 19.2178 201.87 13.7725 206.285 9.35823 211.73 9.35823 217.175 9.35823 221.589 13.7725 221.589 19.2178Z" fill="#A999E5" transform="matrix(1.00103 0 0 1 2550 1245.12)"/><path d="M270.887 103.108C270.887 117.598 259.141 129.344 244.651 129.344 230.161 129.344 218.414 117.598 218.414 103.108 218.414 88.6176 230.161 76.8711 244.651 76.8711 259.141 76.8711 270.887 88.6176 270.887 103.108Z" fill="#A999E5" transform="matrix(1.00103 0 0 1 2550 1245.12)"/><path d="M76.0356 78.5422C76.0356 85.4642 70.4242 91.0756 63.5022 91.0756 56.5803 91.0756 50.9689 85.4642 50.9689 78.5422 50.9689 71.6203 56.5803 66.0089 63.5022 66.0089 70.4242 66.0089 76.0356 71.6203 76.0356 78.5422Z" fill="#A999E5" transform="matrix(1.00103 0 0 1 2550 1245.12)"/><path d="M50.1334 208.889C50.1334 213.688 46.2428 217.579 41.4436 217.579 36.6443 217.579 32.7538 213.688 32.7538 208.889 32.7538 204.09 36.6443 200.199 41.4436 200.199 46.2428 200.199 50.1334 204.09 50.1334 208.889Z" fill="#A999E5" transform="matrix(1.00103 0 0 1 2550 1245.12)"/><path d="M21.7245 325.533C21.7245 330.793 17.4598 335.058 12.1991 335.058 6.93842 335.058 2.67378 330.793 2.67378 325.533 2.67378 320.272 6.93842 316.007 12.1991 316.007 17.4598 316.007 21.7245 320.272 21.7245 325.533Z" fill="#A999E5" transform="matrix(1.00103 0 0 1 2550 1245.12)"/></g></g></g></g></svg>