<svg width="224" height="285" xmlns="http://www.w3.org/2000/svg" xmlns:xlink="http://www.w3.org/1999/xlink" xml:space="preserve" overflow="hidden"><defs><clipPath id="clip0"><rect x="1292" y="818" width="224" height="285"/></clipPath></defs><g clip-path="url(#clip0)" transform="translate(-1292 -818)"><path d="M1402.96 818.81C1459.74 818.81 1505.77 859.533 1505.77 909.766 1505.77 916.046 1505.05 922.176 1503.68 928.097L1499.45 940.158 1501.64 938.373C1504.04 937.185 1506.33 936.867 1508.36 937.584 1516.49 940.454 1517.43 958.797 1510.46 978.555 1505.23 993.373 1497.03 1004.78 1489.83 1008.34L1484.26 1009 1482.27 1018.93C1468.84 1068.16 1437.41 1102.7 1400.77 1102.7 1364.13 1102.7 1332.69 1068.16 1319.26 1018.93L1317.37 1009.48 1313.37 1008.7C1306.46 1004.58 1299.18 992.578 1295.11 977.4 1289.69 957.161 1292.04 938.946 1300.37 936.714L1305.63 937.75 1302.25 928.097C1300.88 922.176 1300.16 916.046 1300.16 909.766 1300.16 859.533 1346.19 818.81 1402.96 818.81Z" fill="#F0CB7F" fill-rule="evenodd"/></g></svg>