<svg width="188" height="189" xmlns="http://www.w3.org/2000/svg" xmlns:xlink="http://www.w3.org/1999/xlink" overflow="hidden"><defs><clipPath id="clip0"><rect x="546" y="154" width="188" height="189"/></clipPath></defs><g clip-path="url(#clip0)" transform="translate(-546 -154)"><path d="M125.333 58.75C125.333 76.0549 111.305 90.0833 94 90.0833 76.6951 90.0833 62.6667 76.0549 62.6667 58.75 62.6667 41.4451 76.6951 27.4167 94 27.4167 111.305 27.4167 125.333 41.4451 125.333 58.75Z" fill="#A999E5" transform="matrix(1 0 0 1.00532 546 154)"/><path d="M156.667 160.583 156.667 129.25C156.667 124.55 154.317 119.85 150.4 116.717 141.783 109.667 130.817 104.967 119.85 101.833 112.017 99.4833 103.4 97.9167 94 97.9167 85.3833 97.9167 76.7667 99.4833 68.15 101.833 57.1833 104.967 46.2167 110.45 37.6 116.717 33.6833 119.85 31.3333 124.55 31.3333 129.25L31.3333 160.583 156.667 160.583Z" fill="#A999E5" transform="matrix(1 0 0 1.00532 546 154)"/></g></svg>