<svg width="279" height="279" xmlns="http://www.w3.org/2000/svg" xmlns:xlink="http://www.w3.org/1999/xlink" xml:space="preserve" overflow="hidden"><defs><clipPath id="clip0"><rect x="1147" y="1745" width="279" height="279"/></clipPath></defs><g clip-path="url(#clip0)" transform="translate(-1147 -1745)"><path d="M1208.5 1823C1208.5 1811.13 1218.13 1801.5 1230 1801.5L1392 1801.5C1403.87 1801.5 1413.5 1811.13 1413.5 1823L1413.5 1909C1413.5 1920.87 1403.87 1930.5 1392 1930.5L1230 1930.5C1218.13 1930.5 1208.5 1920.87 1208.5 1909Z" stroke="#A999E5" stroke-width="6.875" stroke-miterlimit="8" fill="none" fill-rule="evenodd"/><path d="M1217 1916C1230.82 1916 1242 1904.82 1242 1891 1242 1877.18 1230.82 1866 1217 1866 1203.18 1866 1192.01 1877.18 1192.01 1891 1191.71 1904.82 1203.18 1916 1217 1916" fill="#F0CB7F" fill-rule="evenodd"/><path d="M1313.1 1883.74C1309.27 1877.84 1301.62 1876.36 1295.73 1879.9 1294.55 1880.49 1293.96 1881.67 1293.37 1882.26L1250.39 1927.11C1246.27 1925.04 1241.85 1923.27 1237.43 1921.8 1230.66 1920.62 1223.6 1919.14 1216.82 1919.14 1210.05 1919.14 1202.99 1920.32 1196.21 1922.39 1186.2 1925.04 1177.37 1930.06 1170.01 1936.25 1168.24 1938.02 1166.77 1940.68 1166.18 1943.04L1160 1969 1248.03 1969 1248.03 1968.71 1273.06 1939.5 1311.63 1898.78C1315.16 1895.24 1316.34 1888.46 1313.1 1883.74" fill="#F0CB7F" fill-rule="evenodd"/></g></svg>