<svg width="127" height="126" xmlns="http://www.w3.org/2000/svg" xmlns:xlink="http://www.w3.org/1999/xlink" overflow="hidden"><defs><clipPath id="clip0"><rect x="1019" y="168" width="127" height="126"/></clipPath></defs><g clip-path="url(#clip0)" transform="translate(-1019 -168)"><path d="M84 39.375C84 50.973 74.598 60.375 63 60.375 51.402 60.375 42 50.973 42 39.375 42 27.777 51.402 18.375 63 18.375 74.598 18.375 84 27.777 84 39.375Z" fill="#ECF0FF" transform="matrix(1.00794 0 0 1 1019 168)"/><path d="M105 107.625 105 86.625C105 83.475 103.425 80.325 100.8 78.225 95.025 73.5 87.675 70.35 80.325 68.25 75.075 66.675 69.3 65.625 63 65.625 57.225 65.625 51.45 66.675 45.675 68.25 38.325 70.35 30.975 74.025 25.2 78.225 22.575 80.325 21 83.475 21 86.625L21 107.625 105 107.625Z" fill="#ECF0FF" transform="matrix(1.00794 0 0 1 1019 168)"/></g></svg>