<svg width="234" height="277" xmlns="http://www.w3.org/2000/svg" xmlns:xlink="http://www.w3.org/1999/xlink" xml:space="preserve" overflow="hidden"><defs><clipPath id="clip0"><rect x="1122" y="1650" width="234" height="277"/></clipPath></defs><g clip-path="url(#clip0)" transform="translate(-1122 -1650)"><path d="M1160.3 1807.06 1160.25 1807.21 1160.82 1807.77ZM1225.43 1650C1243.66 1650 1261.89 1654.81 1278.23 1664.42 1310.91 1683.98 1330.17 1719.34 1328.79 1757.09L1328.79 1758.81 1352.53 1800C1360.78 1812.7 1352.87 1823 1343.93 1824.03L1328.79 1824.03 1328.79 1844.62C1328.79 1855.6 1324.67 1865.9 1317.1 1873.8 1309.53 1881.35 1299.21 1885.81 1288.2 1885.81L1271.35 1885.81 1271.35 1927 1162.66 1927 1162.66 1840.16C1136.86 1820.25 1122.07 1789.7 1122.07 1757.09 1120.69 1719.34 1139.96 1683.64 1172.63 1664.42 1188.97 1654.81 1207.2 1650 1225.43 1650Z" fill="#F0CB7F" fill-rule="evenodd"/></g></svg>