<svg width="140" height="140" xmlns="http://www.w3.org/2000/svg" xmlns:xlink="http://www.w3.org/1999/xlink" xml:space="preserve" overflow="hidden"><defs><clipPath id="clip0"><rect x="1303" y="1133" width="140" height="140"/></clipPath><clipPath id="clip1"><rect x="1347" y="1171" width="52" height="100"/></clipPath><clipPath id="clip2"><rect x="1347" y="1171" width="52" height="100"/></clipPath><clipPath id="clip3"><rect x="1347" y="1171" width="52" height="100"/></clipPath></defs><g clip-path="url(#clip0)" transform="translate(-1303 -1133)"><g clip-path="url(#clip1)"><g clip-path="url(#clip2)"><g clip-path="url(#clip3)"><path d="M47.1236 63.5065C45.0268 62.0707 42.1631 62.6063 40.727 64.703L29.7744 80.7176 29.1762 4.60192C29.1762 2.06035 27.1158 0 24.5742 0 22.0327 0 19.9723 2.06035 19.9723 4.60192L20.5706 81.3159 8.28345 64.841C6.92888 62.6905 4.08742 62.0454 1.93692 63.3997-0.213581 64.7545-0.858787 67.5957 0.495806 69.7467 0.622391 69.9473 0.764337 70.1383 0.920384 70.3173L21.583 97.9288C21.583 97.9288 21.583 97.9288 21.583 97.9288 21.8635 98.2804 22.2068 98.5768 22.5954 98.8032 22.7418 98.9422 22.9137 99.0517 23.1016 99.1253 23.7047 99.4175 24.3643 99.5745 25.0344 99.5855L25.0344 99.5855C25.5708 99.5703 26.1003 99.4613 26.5991 99.2634L26.8752 99.2634C27.3416 99.0751 27.7645 98.7931 28.1177 98.435L28.1177 98.2049C28.2791 98.0742 28.4188 97.9187 28.5319 97.7447L47.8139 69.627C49.1844 67.7108 48.8862 65.0693 47.1236 63.5065Z" fill="#A999E5" transform="matrix(1.00001 0 0 1 1348.45 1171)"/></g></g></g></g></svg>