<svg width="140" height="140" xmlns="http://www.w3.org/2000/svg" xmlns:xlink="http://www.w3.org/1999/xlink" xml:space="preserve" overflow="hidden"><defs><clipPath id="clip0"><rect x="1501" y="1133" width="140" height="140"/></clipPath><clipPath id="clip1"><rect x="1508" y="1139" width="126" height="129"/></clipPath><clipPath id="clip2"><rect x="1508" y="1139" width="126" height="129"/></clipPath><clipPath id="clip3"><rect x="1508" y="1139" width="126" height="129"/></clipPath></defs><g clip-path="url(#clip0)" transform="translate(-1501 -1133)"><g clip-path="url(#clip1)"><g clip-path="url(#clip2)"><g clip-path="url(#clip3)"><path d="M126 120.392 126 120.063C126.023 119.859 126.023 119.654 126 119.45L119.686 85.0993C119.217 82.4969 116.728 80.7671 114.125 81.2355 111.523 81.7038 109.793 84.1932 110.262 86.7957L113.89 106.398 8.01046 1.36649C6.15967-0.447508 3.19138-0.426456 1.36649 1.41361-0.460477 3.25148-0.460477 6.2197 1.36649 8.05758L107.764 113.466 86.937 110.356C84.3346 109.966 81.9084 111.759 81.5182 114.361 81.128 116.964 82.921 119.39 85.5234 119.78L120.628 125.105 121.57 125.105C122.141 125.059 122.698 124.915 123.22 124.68 123.483 124.568 123.722 124.409 123.927 124.209 124.199 124.069 124.452 123.895 124.68 123.691L124.68 123.691C125.07 123.302 125.375 122.837 125.576 122.324L125.576 121.995C125.825 121.495 125.969 120.95 126 120.392Z" fill="#A999E5" transform="matrix(1 0 0 1.00794 1508 1140.5)"/></g></g></g></g></svg>