<?xml version="1.0" encoding="UTF-8"?><svg id="Layer_2" xmlns="http://www.w3.org/2000/svg" xmlns:xlink="http://www.w3.org/1999/xlink" viewBox="0 0 357.74 293.43"><defs><style>.cls-1{fill:#fff;}.cls-2{stroke:#038387;stroke-width:2.17px;}.cls-2,.cls-3,.cls-4,.cls-5,.cls-6,.cls-7,.cls-8,.cls-9,.cls-10{fill:none;}.cls-3,.cls-5{stroke-linecap:round;stroke-linejoin:round;}.cls-3,.cls-5,.cls-6,.cls-8,.cls-9{stroke:#8a9ba5;}.cls-3,.cls-5,.cls-9{stroke-width:.75px;}.cls-4,.cls-7{stroke:#fff;}.cls-4,.cls-8{stroke-width:.5px;}.cls-5{stroke-dasharray:0 0 0 2.3;}.cls-6,.cls-7{stroke-width:1.51px;}.cls-11{fill:#465055;}.cls-12{fill:#007a82;}.cls-13{fill:#8a9ba5;}.cls-14{clip-path:url(#clippath);}.cls-15{fill:#038387;}</style><clipPath id="clippath"><path class="cls-10" d="M269.71,79.33c-1.95,22.25,14.51,41.86,36.76,43.81,22.25,1.95,41.86-14.51,43.81-36.76,1.95-22.25-14.51-41.86-36.76-43.81-1.2-.11-2.39-.16-3.57-.16-20.74,0-38.4,15.86-40.24,36.92"/></clipPath></defs><g id="Layer_1-2"><rect class="cls-11" x="1.59" y="157.14" width="7.28" height="31.57"/><rect class="cls-11" x="16.73" y="157.14" width="7.28" height="24.27"/><polygon class="cls-11" points="47.77 157.14 37.29 157.14 37.29 149.79 30.21 149.79 30.21 162.04 40.5 162.04 34.09 181.41 41.22 181.41 47.77 161.95 47.77 157.14"/><rect class="cls-11" x="54.27" y="157.14" width="7.28" height="24.27"/><path class="cls-11" d="M89.1,164.86c.05-5.96-2.28-7.72-7.67-7.72h-12.13v24.27h7.23v-19.37h2.33c2.47,0,3.01,.83,3.01,3.19v16.18h7.23v-16.55Z"/><polygon class="cls-11" points="115.35 157.14 108.07 157.14 108.07 172.35 115.35 170.96 115.35 157.14"/><path class="cls-11" d="M135.96,181.4c-1.07-3.74-1.41-6.42-1.41-11.79v-4.81c-.05-6.05-1.75-7.67-7.47-7.67h-5.14v4.9h2.62c1.7,0,3.01,.51,3.01,2.91v2.82c0,1.99-1.21,3.84-2.13,4.99-1.7,2.17-3.83,2.91-3.83,2.91v6.93c2.23-.19,3.11-1.25,4.13-2.91,.87-1.39,1.89-4.71,1.89-4.71,0,0,.14,.09,.24,0,.15,1.06,.53,4.67,.97,6.42h7.13Z"/><rect class="cls-11" x="142.51" y="157.14" width="7.28" height="24.27"/><polygon class="cls-11" points="173.55 157.14 163.07 157.14 163.07 149.79 155.99 149.79 155.99 162.04 166.27 162.04 159.87 181.41 167 181.41 173.55 161.95 173.55 157.14"/><rect class="cls-11" x="180.05" y="157.14" width="7.28" height="24.27"/><g><path class="cls-11" d="M205.27,181.4v-17.61c0-5.78-1.16-6.66-6.26-6.66h-5v4.9h1.51c1.79,0,2.43,.51,2.43,2.54v11.93h-3.93v4.9h11.26Z"/><path class="cls-11" d="M227.44,167.4c.05-8.73-2.18-10.26-9.17-10.26h-6.31v4.9h4.37c3.15,0,3.88,1.06,3.88,5.32v3.74c0,4.16-.87,5.41-3.88,5.41h-4.37v4.9h6.31c7.04,0,9.12-1.53,9.17-10.26v-3.74Z"/><path class="cls-11" d="M255.43,168.79c0-9.06-1.46-12.16-7.23-12.16-1.75,0-3.2,.79-3.2,.79l-.92,4.53c.19,.28,1.12-.51,1.55-.51,2.43,0,2.57,2.82,2.57,7.26,0,5.92,.29,8.97-3.25,8.97-3.35,0-3.35-3.05-3.35-6.47v-14.05h-7.23v14.56c0,5.45,1.75,10.49,10,10.49s11.06-2.59,11.06-13.4"/></g><rect class="cls-11" x="274.11" y="157.14" width="7.28" height="31.57"/><rect class="cls-11" x="288.76" y="157.14" width="7.28" height="24.27"/><g><path class="cls-11" d="M318.3,167.4c.05-8.73-2.18-10.26-9.17-10.26h-6.31v4.9h4.37c3.16,0,3.88,1.06,3.88,5.32v3.74c0,4.16-.87,5.41-3.88,5.41h-4.37v4.9h6.31c7.04,0,9.12-1.53,9.17-10.26v-3.74Z"/><path class="cls-11" d="M347.6,168.88c0-9.06-2.72-12.2-8.88-12.2-4.37,0-5.29,3.93-5.97,5.64h-.34s-.15-2.59-1.12-5.18h-7.28s3.01,7.3,2.72,9.75l-1.89,14.51h7.04l.68-7.63c.78-8.69,2.38-12.2,4.46-12.2s3.3,.97,3.3,7.21c0,6.79-.29,8.46-3.3,8.46-.82,0-1.46-.69-1.46-.69h-.34v4.81s.78,.69,2.38,.69c6.41,0,10-1.66,10-13.17"/></g><polygon class="cls-11" points="4.15 221.51 4.15 209.29 12.59 209.29 12.59 221.51 15.66 221.51 15.66 194.76 12.59 194.76 12.59 206.32 4.15 206.32 4.15 194.76 1.09 194.76 1.09 221.51 4.15 221.51"/><path class="cls-11" d="M25.27,221.88c3.57,0,6.4-1.18,6.4-9.45,0-5.48-.57-10-6.4-10s-6.4,4.52-6.4,10c0,8.26,2.83,9.45,6.4,9.45m0-2.48c-2.83,0-3.53-2.19-3.53-8.26,0-5.11,1.43-6.22,3.53-6.22s3.53,1.11,3.53,6.22c0,6.08-.7,8.26-3.53,8.26"/><rect class="cls-11" x="34.33" y="194.76" width="2.73" height="26.75"/><g><path class="cls-11" d="M46.11,221.88c3.57,0,6.4-1.18,6.4-9.45,0-5.48-.57-10-6.4-10s-6.4,4.52-6.4,10c0,8.26,2.83,9.45,6.4,9.45m0-2.48c-2.83,0-3.53-2.19-3.53-8.26,0-5.11,1.43-6.22,3.53-6.22s3.53,1.11,3.53,6.22c0,6.08-.7,8.26-3.53,8.26"/><path class="cls-11" d="M67.1,221.51v-12.97c0-3.7-.9-6.11-4.5-6.11-2.17,0-3.43,.67-4.5,2.78h-.13v-2.41h-2.9c.1,1.3,.17,2.59,.17,3.89v14.82h2.73v-11.08c0-2.56,.43-5.52,3.43-5.52,2.33,0,2.97,1.63,2.97,3.63v12.97h2.73Z"/></g><rect class="cls-11" x="77.1" y="194.76" width="3.07" height="26.75"/><g><path class="cls-11" d="M95.25,221.51v-12.97c0-3.7-.9-6.11-4.5-6.11-2.17,0-3.43,.67-4.5,2.78h-.13v-2.41h-2.9c.1,1.3,.17,2.59,.17,3.89v14.82h2.73v-11.08c0-2.56,.43-5.52,3.43-5.52,2.33,0,2.97,1.63,2.97,3.63v12.97h2.73Z"/><path class="cls-11" d="M108.94,216.18c0-5.71-8.4-5.63-8.4-8.93,0-1.63,1.13-2.52,2.6-2.52,1.73,0,2.67,1.04,2.63,3h3.03c.23-3.7-2.33-5.3-5.34-5.3-4.73,0-5.8,3.15-5.8,5.11,0,5.59,8.4,5.67,8.4,9,0,1.93-1.27,2.85-2.9,2.85-2.77,0-2.8-2.52-2.8-3.59h-3.1c-.1,4.3,2.17,6.08,5.8,6.08,3.33,0,5.87-1.59,5.87-5.71"/><path class="cls-11" d="M109.82,202.8v2.3h2.77v13.3c0,2.15,1.17,3.33,3.77,3.33,.9,0,1.8-.22,2.7-.3v-2.33c-.6,.07-1.03,.15-1.23,.15-2.5,0-2.5-1.52-2.5-2.7v-11.45h3.67v-2.3h-3.67v-4.96l-2.73,1.37v3.59h-2.77Z"/></g><path class="cls-11" d="M120.7,198.02h3.07v-3.26h-3.07v3.26Zm2.9,4.78h-2.73v18.71h2.73v-18.71Z"/><g><path class="cls-11" d="M125.25,202.8v2.3h2.77v13.3c0,2.15,1.17,3.33,3.77,3.33,.9,0,1.8-.22,2.7-.3v-2.33c-.6,.07-1.03,.15-1.23,.15-2.5,0-2.5-1.52-2.5-2.7v-11.45h3.67v-2.3h-3.67v-4.96l-2.73,1.37v3.59h-2.77Z"/><path class="cls-11" d="M145.36,215.21c0,3.11-1.83,4.33-3.3,4.33-1.93,0-2.87-1.52-2.87-3.78v-12.97h-2.73v14.26c0,3.19,1.6,4.82,4.54,4.82,1.77,0,3.37-.93,4.27-2.63h.1v2.26h2.9c-.1-1.3-.17-2.59-.17-3.89v-14.82h-2.73v12.41Z"/><path class="cls-11" d="M149.95,202.8v2.3h2.77v13.3c0,2.15,1.17,3.33,3.77,3.33,.9,0,1.8-.22,2.7-.3v-2.33c-.6,.07-1.03,.15-1.23,.15-2.5,0-2.5-1.52-2.5-2.7v-11.45h3.67v-2.3h-3.67v-4.96l-2.73,1.37v3.59h-2.77Z"/><path class="cls-11" d="M172.53,213.14v-1.59c0-6.19-1.2-9.11-6-9.11-5.84,0-6.4,4.52-6.4,10,0,8.26,2.83,9.45,6.4,9.45s5.84-1.89,5.87-6.04h-3c-.1,1.89-1.07,3.56-2.93,3.56-2.13,0-3.4-1.04-3.4-6.26h9.47Zm-9.47-2.3c.03-5.19,1.47-6.11,3.2-6.11,2,0,3.37,.67,3.37,6.11h-6.57Z"/><path class="cls-11" d="M187.84,221.88c3.57,0,6.4-1.18,6.4-9.45,0-5.48-.57-10-6.4-10s-6.4,4.52-6.4,10c0,8.26,2.83,9.45,6.4,9.45m0-2.48c-2.83,0-3.53-2.19-3.53-8.26,0-5.11,1.43-6.22,3.53-6.22s3.53,1.11,3.53,6.22c0,6.08-.7,8.26-3.53,8.26"/><path class="cls-11" d="M195.19,202.8v2.3h2.6v16.41h2.73v-16.41h3.4v-2.3h-3.4v-3.19c0-1.52,.5-2.89,3.4-2.67v-2.19c-.4-.07-.73-.11-1.3-.11-2.43,0-4.83,.74-4.83,4.52v3.63h-2.6Z"/></g><polygon class="cls-11" points="211.45 194.76 211.45 197.73 217.79 197.73 217.79 221.51 220.85 221.51 220.85 197.73 227.19 197.73 227.19 194.76 211.45 194.76"/><g><path class="cls-11" d="M237.24,213.14v-1.59c0-6.19-1.2-9.11-6-9.11-5.84,0-6.4,4.52-6.4,10,0,8.26,2.83,9.45,6.4,9.45s5.84-1.89,5.87-6.04h-3c-.1,1.89-1.07,3.56-2.93,3.56-2.13,0-3.4-1.04-3.4-6.26h9.47Zm-9.47-2.3c.03-5.19,1.47-6.11,3.2-6.11,2,0,3.37,.67,3.37,6.11h-6.57Z"/><path class="cls-11" d="M251.47,208.8c.17-4.19-1.8-6.37-5.17-6.37-5.84,0-6.4,4.52-6.4,10,0,8.26,2.83,9.45,6.4,9.45,1.87,0,5.4-1.33,5.3-6.59h-2.87c.1,3.37-1.8,4.11-2.43,4.11-2.83,0-3.53-2.18-3.53-8.26,0-5.11,1.43-6.22,3.53-6.22,1.03,0,2.4,.82,2.33,3.89h2.83Z"/><path class="cls-11" d="M266.42,221.51v-13.26c0-4.22-1.6-5.82-4.47-5.82-2.2,0-3.47,.59-4.57,2.78h-.13v-10.45h-2.73v26.75h2.73v-11c0-3.15,.7-5.59,3.43-5.59,2.33,0,3,1.63,3,3.93v12.67h2.73Z"/><path class="cls-11" d="M281.81,221.51v-12.97c0-3.7-.9-6.11-4.5-6.11-2.17,0-3.43,.67-4.5,2.78h-.13v-2.41h-2.9c.1,1.3,.17,2.59,.17,3.89v14.82h2.73v-11.08c0-2.56,.43-5.52,3.43-5.52,2.33,0,2.97,1.63,2.97,3.63v12.97h2.73Z"/><path class="cls-11" d="M291.27,221.88c3.57,0,6.4-1.18,6.4-9.45,0-5.48-.57-10-6.4-10s-6.4,4.52-6.4,10c0,8.26,2.83,9.45,6.4,9.45m0-2.48c-2.83,0-3.53-2.19-3.53-8.26,0-5.11,1.43-6.22,3.53-6.22s3.53,1.11,3.53,6.22c0,6.08-.7,8.26-3.53,8.26"/></g><rect class="cls-11" x="299.99" y="194.76" width="2.73" height="26.75"/><g><path class="cls-11" d="M311.44,221.88c3.57,0,6.4-1.18,6.4-9.45,0-5.48-.57-10-6.4-10s-6.4,4.52-6.4,10c0,8.26,2.84,9.45,6.4,9.45m0-2.48c-2.83,0-3.53-2.19-3.53-8.26,0-5.11,1.43-6.22,3.53-6.22s3.53,1.11,3.53,6.22c0,6.08-.7,8.26-3.53,8.26"/><path class="cls-11" d="M329.13,205.1h-.07c-.77-1.82-2.17-2.67-3.93-2.67-1.37,0-5.27,.56-5.27,9.15,0,5.56,.9,9.93,5.47,9.93,1.47,0,3-.85,3.7-2.33h.1v3.89c0,1.93-1.03,3.22-2.93,3.22-1.5,0-2.53-.96-2.57-2.7h-3.07c-.23,3.45,2.3,5,5.1,5,3.7,0,6.2-1,6.2-5.19v-20.6h-2.73v2.3Zm.07,6.97c0,2.59,.1,6.93-3.2,6.93-2.03,0-3.27-1.41-3.27-7.41,0-2.48,.1-6.63,3.2-6.63,3.43,0,3.27,4.33,3.27,7.11"/></g><polygon class="cls-11" points="336.65 202.8 333.48 202.8 339.18 221.51 337.28 228.59 340.12 228.59 347.75 202.8 344.78 202.8 340.75 218.03 340.68 218.03 336.65 202.8"/><g><path class="cls-12" d="M254.6,33.95c3.43,0,6.13,2.69,6.13,6.2v10.47c0,2.9-2.21,6.16-6.16,6.16h-5.9c-1.94,0-4.09,1.65-4.09,4.12v31.96c0,3.46-2.8,6.26-6.26,6.26h-10.35c-3.46,0-6.26-2.8-6.26-6.26v-31.96c0-2.47-2.15-4.12-4.09-4.12h-5.9c-3.94,0-6.16-3.26-6.16-6.16v-10.47c0-3.5,2.7-6.2,6.13-6.2h42.89Z"/><path class="cls-12" d="M177.9,33.95h10.33c3.46,0,6.26,2.8,6.26,6.26V126.8c0,3.46-2.8,6.26-6.26,6.26h-10.33c-3.46,0-6.26-2.8-6.26-6.26V40.21c0-3.46,2.8-6.26,6.26-6.26"/><path class="cls-12" d="M137.03,74.1c0-2.08-1.61-4.07-4.08-4.07h-19.23c-2.27,0-4.01,1.75-4.01,4.01v52.74c0,3.46-2.8,6.26-6.26,6.26h-10.33c-3.46,0-6.26-2.8-6.26-6.26V40.21c0-3.46,2.8-6.26,6.26-6.26h10.33c3.46,0,6.26,2.8,6.26,6.26v8.73c0,2.26,1.74,4.09,4.01,4.09h19.23c2.47,0,4.08-1.99,4.08-4.07V6.26c0-3.46,2.8-6.26,6.26-6.26h10.33c3.46,0,6.26,2.8,6.26,6.26V92.85c0,3.46-2.84,6.26-6.3,6.26h-10.33c-3.46,0-6.22-2.8-6.22-6.26v-18.75Z"/><path class="cls-12" d="M177.85,.04h10.33c3.46,0,6.26,2.81,6.26,6.28v10.29c0,3.47-2.8,6.28-6.26,6.28h-10.33c-3.46,0-6.26-2.81-6.26-6.28V6.31c0-3.47,2.8-6.28,6.26-6.28"/><path class="cls-12" d="M227.94,110.24h10.33c3.46,0,6.26,2.81,6.26,6.28v10.3c0,3.47-2.8,6.28-6.26,6.28h-10.33c-3.46,0-6.26-2.81-6.26-6.28v-10.3c0-3.47,2.8-6.28,6.26-6.28"/><path class="cls-12" d="M143.24,110.24h10.33c3.46,0,6.26,2.81,6.26,6.28v10.29c0,3.47-2.8,6.28-6.26,6.28h-10.33c-3.46,0-6.26-2.81-6.26-6.28v-10.29c0-3.47,2.8-6.28,6.26-6.28"/><path class="cls-13" d="M326.61,98.57c-.31-.16-.65-.25-1.01-.28-.75-.07-1.39,.12-1.91,.56-.52,.44-.82,1.04-.89,1.79-.06,.72,.13,1.3,.58,1.74,.32,.31,.95,.62,1.87,.93,.85,.28,1.41,.5,1.69,.67,.28,.17,.48,.36,.6,.58,.12,.22,.16,.47,.14,.74-.04,.48-.26,.88-.65,1.19-.39,.31-.87,.44-1.45,.39-.71-.06-1.32-.38-1.84-.96-.52-.58-.82-1.34-.9-2.27l-.42-.04-.29,3.33,.42,.04,.73-.74c.61,.63,1.35,.98,2.24,1.06,.82,.07,1.52-.12,2.09-.59,.57-.46,.88-1.08,.95-1.86,.04-.43-.02-.82-.19-1.16-.16-.34-.43-.63-.79-.88-.37-.25-1.02-.52-1.96-.81-.67-.21-1.12-.39-1.36-.54s-.4-.34-.51-.55c-.11-.22-.15-.47-.12-.74,.04-.44,.23-.8,.59-1.08,.35-.28,.78-.39,1.29-.35,.61,.05,1.13,.32,1.57,.8,.43,.48,.73,1.22,.88,2.2l.38,.03,.24-3.14-.42-.04-.59,.7c-.32-.33-.64-.57-.96-.73m-10.24-.04c.01-.16,.08-.26,.19-.31,.11-.05,.4-.06,.86-.02,.69,.06,1.15,.15,1.38,.27,.23,.12,.4,.31,.53,.59,.12,.28,.16,.64,.12,1.09-.06,.66-.29,1.1-.7,1.32-.41,.22-.95,.31-1.63,.25l-1.02-.09,.27-3.09Zm-2.58-.65l.84,.07c.18,.02,.31,.06,.4,.15,.08,.08,.12,.2,.1,.34l-.6,6.87c-.01,.13-.06,.23-.16,.29-.09,.07-.23,.09-.42,.08l-.84-.07-.04,.44,3.99,.35,.04-.44-.83-.07c-.2-.02-.34-.07-.43-.15-.07-.06-.1-.17-.08-.31l.3-3.38,.7,.06c.37,.03,.69,.13,.94,.28,.26,.16,.44,.35,.54,.58,.11,.23,.17,.6,.18,1.12,.02,.9,.07,1.45,.13,1.67,.08,.29,.22,.51,.41,.67,.2,.16,.43,.25,.72,.28,.9,.08,1.44-.54,1.63-1.85l-.39-.03c-.06,.44-.15,.75-.27,.92-.12,.17-.24,.25-.36,.23-.12,0-.22-.09-.31-.24-.12-.2-.21-.55-.28-1.07-.1-.72-.21-1.21-.31-1.45-.11-.24-.26-.44-.45-.61-.2-.16-.56-.35-1.1-.54,.77-.01,1.33-.09,1.7-.23,.37-.15,.66-.36,.88-.64,.21-.28,.34-.61,.37-.99,.06-.64-.14-1.17-.58-1.6-.44-.43-1.09-.69-1.95-.76l-4.44-.39-.04,.44Zm-3.84,4.57l-3.04-.27,1.88-3.69,1.16,3.96Zm-4.4,1.44c-.2,.39-.4,.65-.61,.78-.21,.13-.48,.18-.81,.15l-.04,.44,3.11,.27,.04-.44-.29-.03c-.34-.03-.59-.12-.75-.27-.16-.15-.24-.32-.22-.51,.01-.16,.09-.38,.21-.65l.49-1.01,3.4,.3,.55,1.89c.02,.08,.03,.15,.02,.21,0,.11-.07,.19-.17,.24-.16,.06-.41,.08-.77,.05l-.27-.02-.04,.44,3.43,.3,.04-.44-.27-.02c-.38-.03-.62-.22-.72-.54l-2.39-8.13-.39-.03-3.56,7.04Zm-8.47-7.47l.7,.06c.17,.02,.3,.06,.37,.14,.08,.08,.11,.2,.09,.35l-.6,6.81c-.01,.15-.07,.26-.17,.33-.1,.07-.26,.1-.49,.08l-.59-.05-.04,.44,7.08,.62,.43-3.19-.42-.04c-.38,1.83-1.29,2.67-2.74,2.55l-1.33-.12c-.19-.02-.33-.06-.41-.14s-.11-.17-.1-.3l.3-3.42,.67,.06c.43,.04,.76,.21,.98,.52,.22,.31,.32,.79,.28,1.45l.4,.04,.35-3.98-.4-.04c-.07,.58-.24,1.01-.51,1.27-.27,.26-.6,.38-1,.34l-.74-.06,.27-3.06c.01-.15,.06-.26,.13-.33s.18-.1,.32-.08l1.68,.15c.54,.05,.96,.27,1.26,.66,.3,.39,.49,1.05,.57,1.98l.39,.04,.09-2.91-6.81-.6-.04,.44Zm-9.23-.81c.36,.04,.62,.1,.77,.19,.15,.08,.27,.22,.37,.41l2.3,4.39-.23,2.64c-.01,.13-.07,.24-.17,.3s-.25,.09-.46,.07l-.78-.07-.04,.44,3.95,.35,.04-.43-.74-.07c-.22-.02-.38-.07-.49-.17-.08-.07-.11-.17-.09-.32l.24-2.72,2.31-3.46c.23-.35,.46-.58,.69-.69,.23-.11,.53-.15,.9-.12l.04-.44-3.28-.29-.04,.44,.4,.04c.24,.02,.43,.1,.55,.23,.12,.13,.17,.3,.16,.5-.01,.15-.06,.29-.14,.41l-1.82,2.75-1.88-3.58c-.05-.09-.07-.18-.06-.28,0-.1,.07-.17,.18-.21,.11-.04,.34-.05,.68-.02l.42,.04,.04-.44-3.77-.33-.04,.44Z"/><path class="cls-5" d="M309.84,116.56c16.91,.1,31.4-12.47,33.57-29.38"/><path class="cls-5" d="M343.7,83.01c.1-16.91-12.47-31.4-29.38-33.57"/><path class="cls-5" d="M310.15,49.16c-16.91-.1-31.4,12.47-33.57,29.38"/><path class="cls-5" d="M276.3,82.7c-.1,16.91,12.47,31.4,29.38,33.57"/><path class="cls-3" d="M307.06,116.43h0m-30.63-36.5h0m36.5-30.63h0m30.63,36.5h0"/></g><g class="cls-14"><circle class="cls-4" cx="310" cy="82.86" r="41.96" transform="translate(7.72 190.53) rotate(-34.57)"/><path class="cls-7" d="M306.55,122.23c21.71,1.9,40.92-14.22,42.82-35.93,1.9-21.71-14.22-40.92-35.93-42.82-21.71-1.9-40.92,14.22-42.82,35.93-1.9,21.71,14.22,40.92,35.93,42.82Z"/></g><g><circle class="cls-8" cx="310" cy="82.86" r="41.96" transform="translate(7.72 190.53) rotate(-34.57)"/><path class="cls-6" d="M306.55,122.23c21.71,1.9,40.92-14.22,42.82-35.93,1.9-21.71-14.22-40.92-35.93-42.82-21.71-1.9-40.92,14.22-42.82,35.93-1.9,21.71,14.22,40.92,35.93,42.82Z"/><path class="cls-13" d="M327.99,68.26c.94,1.97,1.16,5.72,.68,11.24-.47,5.34-1.37,8.97-2.72,10.88-1.13,1.6-2.62,2.33-4.45,2.17-1.82-.16-3.18-1.2-4.1-3.13-.92-1.92-1.14-5.63-.66-11.11,.49-5.61,1.33-9.26,2.53-10.95,1.2-1.69,2.73-2.46,4.59-2.29,1.82,.16,3.19,1.22,4.13,3.19m-11.19-1.81c-2.38,2.73-3.79,6.56-4.22,11.49-.45,5.18,.33,9.25,2.34,12.19,1.61,2.34,3.76,3.63,6.45,3.86,2.79,.24,5.28-.85,7.48-3.27,2.2-2.43,3.52-6.13,3.95-11.1,.47-5.35-.32-9.45-2.35-12.28-1.64-2.3-3.84-3.57-6.59-3.81-2.8-.24-5.16,.73-7.07,2.92m-24.17,1.55l-1.03,6.17c-.08,.13-.22,.29-.4,.45-.63,.55-.97,1.14-1.03,1.76-.03,.35,.03,.63,.18,.85,.15,.21,.37,.33,.65,.35,.39,.03,.73-.1,1.01-.41s.52-.95,.7-1.93c.9-.55,1.79-.94,2.66-1.17s1.73-.32,2.58-.24c1.86,.16,3.33,.93,4.42,2.3,1.09,1.37,1.51,3.43,1.27,6.18-.26,3.02-1.02,5.14-2.27,6.38-1.25,1.24-2.96,1.76-5.11,1.58-1.1-.1-2.06-.35-2.88-.77-.82-.42-1.42-.92-1.8-1.5-.37-.58-.54-1.09-.5-1.54,.03-.31,.36-.56,1-.74,.64-.17,1.09-.42,1.35-.73,.26-.32,.42-.78,.47-1.39,.07-.8-.11-1.48-.54-2.02-.43-.54-1.01-.84-1.76-.91-.76-.07-1.41,.19-1.95,.78-.54,.58-.86,1.45-.96,2.61-.17,1.92,.45,3.63,1.86,5.16,1.41,1.52,3.33,2.39,5.77,2.6,3.18,.28,5.86-.46,8.03-2.21,2.17-1.75,3.39-4.13,3.65-7.11,.23-2.69-.51-5.03-2.23-7.03-1.72-2-3.96-3.11-6.72-3.36-.87-.08-1.81-.02-2.8,.16-1,.18-2.05,.5-3.17,.94l1.4-8.01c2.24,.71,4.18,1.13,5.83,1.28,1.42,.12,2.7,0,3.83-.39,1.13-.38,2.05-.95,2.76-1.71,.7-.75,1.08-1.38,1.12-1.87,.02-.21-.04-.32-.18-.34-.07,0-.23,.04-.48,.15-.49,.23-1.21,.4-2.15,.52-.95,.12-1.95,.14-3.01,.05-2.25-.2-5.13-.86-8.62-1.99-.22,2.31-.53,4.68-.94,7.12"/></g><path class="cls-13" d="M294.75,39.7l-5.2-5.15,1.79,4.94c.17,.45,.32,.72,.46,.79,.19,.1,.44,.1,.74,0l.27-.1,.07,.2-2.65,.96-.07-.2,.27-.1c.32-.12,.52-.29,.58-.53,.04-.15-.02-.43-.17-.84l-1.76-4.83c-.12-.33-.24-.55-.37-.67-.09-.09-.22-.14-.39-.16-.17-.02-.4,.03-.71,.14l-.07-.2,2.15-.78,4.86,4.78,.61-6.77,2.15-.78,.07,.2-.26,.1c-.33,.12-.52,.3-.59,.54-.04,.15,.01,.43,.17,.84l1.76,4.83c.17,.45,.32,.72,.47,.79,.19,.1,.44,.1,.74,0l.26-.1,.07,.2-3.23,1.18-.07-.2,.27-.1c.33-.12,.52-.3,.58-.53,.04-.15-.01-.43-.17-.84l-1.79-4.94-.67,7.28-.18,.07Z"/><path class="cls-13" d="M302.51,32.01c.82-.13,1.52,.07,2.11,.6,.5,.45,.8,1.01,.91,1.68,.07,.47,.03,.96-.13,1.48-.16,.52-.42,.93-.79,1.24-.37,.31-.8,.5-1.3,.58-.81,.13-1.51-.09-2.09-.64-.49-.47-.78-1.03-.89-1.69-.08-.48-.03-.98,.14-1.49,.17-.51,.44-.92,.81-1.21,.37-.29,.77-.47,1.22-.54Zm-.12,.4c-.21,.03-.41,.13-.6,.28-.19,.15-.33,.39-.41,.71-.08,.32-.09,.72-.01,1.19,.12,.76,.38,1.4,.78,1.9,.4,.51,.85,.72,1.37,.64,.38-.06,.67-.26,.87-.61,.2-.34,.24-.89,.13-1.63-.15-.93-.47-1.63-.96-2.1-.34-.32-.72-.45-1.15-.38Z"/><path class="cls-13" d="M308.1,31.37l.07,1.19c.41-.82,.86-1.24,1.34-1.27,.22-.01,.4,.04,.55,.16,.15,.12,.23,.27,.24,.44,0,.15-.04,.28-.13,.39s-.22,.17-.36,.18c-.14,0-.3-.05-.48-.17-.18-.12-.31-.18-.4-.18-.07,0-.15,.05-.23,.13-.17,.17-.34,.44-.51,.81l.14,2.54c.02,.29,.07,.51,.15,.66,.06,.1,.15,.18,.29,.24,.13,.06,.33,.09,.57,.07v.21s-2.78,.16-2.78,.16v-.21c.27-.02,.47-.07,.6-.16,.1-.07,.16-.17,.19-.31,.02-.07,.02-.25,0-.56l-.12-2.05c-.03-.62-.07-.98-.1-1.1-.03-.12-.08-.2-.16-.25-.07-.05-.16-.07-.26-.07-.12,0-.26,.04-.41,.11l-.07-.2,1.61-.74h.25Z"/><path class="cls-13" d="M311.94,33.41c-.04,.79,.13,1.41,.51,1.88,.38,.47,.83,.71,1.37,.73,.36,.02,.67-.07,.95-.25,.27-.18,.51-.5,.71-.95l.18,.12c-.11,.52-.37,1-.79,1.41-.42,.42-.93,.61-1.54,.58-.66-.03-1.21-.3-1.65-.82s-.65-1.19-.61-2.03c.04-.91,.31-1.6,.81-2.09,.5-.49,1.11-.71,1.84-.68,.61,.03,1.11,.25,1.48,.66,.38,.41,.55,.94,.52,1.6l-3.78-.17Zm.02-.34l2.53,.11c0-.34-.04-.58-.09-.72-.09-.22-.23-.4-.42-.53-.19-.13-.39-.2-.61-.21-.33-.01-.63,.1-.9,.33-.27,.24-.44,.58-.5,1.02Z"/><path class="cls-13" d="M322.4,30.98l-.39,1.7,1.25,.28-.09,.4-1.25-.28-.76,3.36c-.08,.34-.08,.57,0,.71,.07,.14,.19,.23,.34,.26,.13,.03,.26,.02,.4-.03s.26-.14,.36-.28l.23,.05c-.22,.34-.47,.57-.77,.7-.29,.13-.57,.17-.83,.1-.18-.04-.34-.13-.49-.26-.15-.13-.24-.3-.29-.5-.04-.2-.02-.48,.07-.86l.79-3.48-.84-.19,.04-.19c.23-.03,.48-.12,.75-.27,.27-.15,.52-.34,.76-.57,.12-.12,.31-.36,.55-.7l.18,.04Z"/><path class="cls-13" d="M326.81,30.95l-1.25,3.68c.57-.3,1-.48,1.29-.52,.29-.04,.55-.02,.8,.06,.29,.1,.52,.27,.68,.49,.16,.23,.23,.53,.22,.9,0,.26-.12,.7-.33,1.32l-.6,1.78c-.11,.32-.16,.54-.14,.68,0,.1,.05,.19,.12,.27,.07,.08,.23,.16,.47,.25l-.07,.2-2.54-.86,.07-.2,.12,.04c.24,.08,.42,.1,.54,.06,.12-.04,.22-.12,.31-.25,.03-.06,.1-.23,.19-.51l.6-1.78c.19-.55,.28-.92,.28-1.11,0-.19-.05-.35-.15-.48-.1-.13-.24-.22-.42-.29-.18-.06-.39-.08-.62-.05-.23,.03-.54,.14-.91,.33l-.9,2.66c-.12,.34-.17,.56-.16,.66,.01,.1,.06,.19,.15,.29,.09,.09,.26,.18,.53,.27l-.07,.2-2.57-.87,.07-.2c.23,.08,.42,.1,.58,.08,.09-.01,.17-.06,.25-.15,.08-.09,.17-.29,.28-.6l1.55-4.55c.19-.57,.3-.93,.32-1.07,.02-.14,0-.25-.04-.31-.04-.07-.11-.12-.21-.15-.08-.03-.22-.04-.42-.04v-.22s1.75-.09,1.75-.09l.26,.09Z"/><path class="cls-13" d="M331.49,40.81c-.68,.15-1.11,.22-1.26,.22-.24,0-.46-.05-.68-.16-.34-.16-.57-.4-.69-.73-.12-.33-.09-.68,.08-1.05,.11-.23,.26-.41,.44-.54,.26-.17,.62-.28,1.08-.32,.46-.04,1.19-.02,2.18,.07l.09-.19c.22-.48,.29-.85,.22-1.1-.08-.25-.26-.45-.56-.58-.23-.1-.44-.13-.62-.07-.19,.06-.33,.16-.4,.32l-.13,.31c-.07,.16-.17,.27-.3,.31-.13,.05-.26,.04-.39-.02-.13-.06-.22-.16-.27-.29-.04-.13-.03-.27,.05-.43,.14-.3,.43-.51,.86-.61,.43-.11,.94-.03,1.51,.24,.44,.2,.77,.44,.99,.72,.16,.21,.24,.45,.24,.73,0,.18-.11,.5-.33,.97l-.75,1.64c-.21,.46-.33,.75-.36,.86-.03,.11-.03,.19,0,.25s.07,.09,.12,.12c.06,.03,.11,.04,.17,.03,.1-.01,.3-.07,.62-.18l-.14,.29c-.65,.34-1.16,.42-1.52,.26-.18-.08-.29-.21-.34-.37-.05-.17-.01-.4,.12-.69Zm.16-.34l.85-1.84c-.64-.04-1.06-.05-1.26-.04-.36,.02-.64,.09-.84,.2-.2,.11-.35,.27-.44,.47-.12,.25-.13,.5-.06,.74,.08,.24,.22,.4,.42,.5,.27,.13,.72,.12,1.33-.03Z"/><path class="cls-13" d="M336.89,39.69c.94-.29,1.66-.29,2.15,.02,.25,.16,.43,.36,.54,.59,.11,.24,.12,.53,.05,.88-.05,.24-.2,.57-.46,.97l-1.21,1.92c-.18,.28-.28,.49-.29,.62-.01,.1,0,.21,.06,.3,.05,.1,.19,.22,.42,.36l-.11,.18-2.29-1.44,.11-.18,.1,.06c.22,.14,.39,.2,.51,.19,.13,0,.25-.07,.36-.17,.05-.04,.15-.19,.31-.45l1.16-1.84c.26-.41,.39-.74,.4-.99s-.12-.46-.38-.62c-.4-.25-.93-.29-1.6-.11l-1.49,2.37c-.19,.3-.29,.5-.3,.6-.01,.12,0,.23,.06,.33,.05,.1,.21,.22,.46,.38l-.11,.18-2.29-1.44,.11-.18,.1,.06c.24,.15,.43,.19,.59,.13s.34-.26,.54-.59l1.05-1.67c.34-.54,.53-.88,.58-1.01,.05-.13,.06-.24,.04-.31-.03-.08-.08-.14-.17-.2-.09-.06-.22-.11-.39-.14l.04-.22,1.74,.33,.22,.14-.6,.95Z"/><path class="cls-9" d="M283.11,43.86c-11.21,7.74-19.02,20.23-20.3,34.87-.47,5.32-.03,10.51,1.17,15.42"/><path class="cls-13" d="M267.95,103.16c.36,.75,.37,1.48,.03,2.19-.29,.61-.74,1.06-1.35,1.35-.43,.2-.91,.31-1.46,.3s-1.01-.14-1.41-.4c-.4-.27-.71-.63-.93-1.08-.35-.74-.35-1.47,.02-2.18,.31-.6,.77-1.05,1.37-1.33,.44-.21,.93-.3,1.47-.29,.54,.02,1,.16,1.39,.43,.38,.27,.67,.61,.87,1.02Zm-.42,0c-.09-.19-.24-.36-.44-.5-.2-.14-.47-.2-.8-.19-.33,.01-.71,.12-1.15,.33-.7,.33-1.23,.76-1.6,1.29s-.44,1.02-.22,1.49c.17,.35,.44,.57,.83,.66s.92-.02,1.6-.34c.85-.41,1.43-.91,1.74-1.52,.21-.41,.23-.82,.04-1.21Z"/><path class="cls-13" d="M269.89,107.93l-2.99,1.79c-.42,.25-.66,.46-.72,.63-.07,.21-.04,.43,.08,.64l.25,.42-.18,.11-1.68-2.8,.18-.11,.12,.21c.08,.14,.19,.24,.32,.31s.27,.1,.41,.07,.37-.13,.69-.33l2.99-1.79-.55-.91,.36-.21,.55,.91,.3-.18c.45-.27,.88-.43,1.29-.47,.41-.04,.8,.04,1.18,.23,.38,.19,.68,.48,.91,.87,.21,.36,.3,.76,.25,1.19-.03,.29-.14,.49-.32,.6-.1,.06-.22,.07-.36,.03-.14-.04-.24-.11-.3-.21-.05-.08-.07-.18-.07-.3s.06-.3,.16-.53c.11-.23,.16-.42,.16-.57,0-.14-.04-.28-.12-.41-.09-.16-.21-.27-.36-.33-.15-.06-.32-.06-.52,0-.2,.05-.65,.29-1.36,.72l-.33,.2,.72,1.21-.36,.21-.72-1.21Z"/><path class="cls-13" d="M273.32,116.46l-2.04-2.38-1.3,.39c-.32,.1-.54,.19-.65,.29-.09,.08-.13,.19-.13,.34,0,.15,.13,.38,.36,.69l-.16,.14-1.66-1.94,.16-.14c.26,.22,.46,.34,.6,.35,.27,.03,.71-.04,1.3-.22l6.77-2.04,.14,.16-3.14,6.39c-.25,.51-.38,.89-.38,1.14,0,.24,.1,.49,.3,.76l-.16,.14-2.08-2.43,.16-.14c.22,.23,.4,.37,.54,.39,.14,.03,.26,0,.36-.08,.13-.11,.28-.35,.46-.71l.54-1.11Zm.22-.41l1.52-3.11-3.33,1,1.81,2.11Z"/><path class="cls-13" d="M278.53,122.32c-.57,.43-1.14,.65-1.71,.65-.57,0-1.05-.17-1.45-.51-.47-.41-.71-.95-.73-1.64-.02-.69,.26-1.35,.83-2,.55-.63,1.19-.97,1.92-1.03,.73-.06,1.36,.15,1.9,.62,.4,.35,.65,.75,.73,1.18,.08,.44,.02,.77-.17,.99-.1,.11-.21,.17-.34,.17-.13,0-.27-.05-.4-.17-.18-.15-.26-.33-.26-.51,0-.11,.07-.25,.2-.44,.13-.19,.19-.37,.16-.55-.03-.18-.14-.35-.32-.51-.3-.26-.64-.36-1.01-.31-.49,.07-.94,.35-1.35,.81-.42,.48-.66,1-.74,1.58-.08,.58,.09,1.04,.5,1.4,.29,.26,.64,.39,1.05,.4,.28,0,.65-.09,1.12-.31l.08,.18Z"/><path class="cls-13" d="M280.88,125.5c-.7,.02-1.13,.01-1.28-.02-.23-.05-.45-.14-.64-.28-.31-.22-.49-.5-.54-.85-.05-.35,.04-.69,.28-1.02,.15-.21,.33-.36,.54-.44,.28-.12,.66-.16,1.12-.11,.46,.04,1.17,.2,2.13,.48l.12-.17c.31-.43,.45-.78,.42-1.04-.03-.26-.17-.49-.44-.68-.21-.15-.41-.21-.6-.19-.2,.02-.35,.1-.45,.24l-.19,.28c-.1,.15-.22,.23-.35,.25-.13,.02-.26,0-.38-.09-.12-.09-.19-.2-.21-.33-.02-.14,.02-.27,.12-.42,.19-.27,.51-.42,.96-.44,.45-.02,.93,.15,1.44,.51,.4,.28,.67,.58,.84,.89,.12,.23,.15,.49,.1,.76-.04,.18-.21,.47-.5,.89l-1.04,1.47c-.29,.41-.46,.67-.51,.78-.05,.1-.07,.19-.05,.24,.01,.06,.04,.1,.09,.14,.05,.04,.1,.06,.16,.06,.1,0,.31-.01,.64-.06l-.19,.26c-.7,.21-1.21,.2-1.54-.03-.16-.11-.25-.26-.27-.43-.02-.17,.06-.39,.24-.65Zm.22-.31l1.17-1.65c-.62-.16-1.04-.25-1.23-.27-.36-.04-.64-.03-.86,.04-.22,.07-.39,.2-.52,.38-.16,.23-.22,.46-.19,.71,.03,.25,.14,.44,.32,.57,.25,.17,.68,.25,1.31,.22Z"/><path class="cls-13" d="M285.96,128.82c-.36,.11-.68,.16-.96,.14-.28-.02-.55-.09-.81-.23-.53-.28-.87-.74-1.04-1.38-.16-.64-.07-1.29,.29-1.96,.36-.67,.91-1.17,1.64-1.49,.73-.32,1.44-.3,2.13,.06,.42,.23,.71,.55,.84,.96l.46-.86c.29-.53,.45-.87,.49-1.01,.04-.14,.04-.24,0-.32-.03-.08-.09-.13-.17-.18-.09-.05-.23-.09-.41-.11l.03-.21,1.74,.2,.24,.13-2.9,5.41c-.29,.55-.46,.89-.5,1.02-.04,.13-.04,.24,0,.32,.03,.08,.09,.14,.16,.18,.09,.05,.24,.09,.43,.12l-.04,.21-1.74-.19-.24-.13,.36-.67Zm.19-.36l1.29-2.41c.1-.24,.15-.49,.15-.73,0-.25-.07-.47-.19-.66-.12-.19-.26-.33-.43-.42-.31-.17-.66-.18-1.04-.04-.51,.18-.95,.62-1.31,1.3-.37,.69-.5,1.3-.38,1.83,.11,.53,.36,.9,.74,1.1,.32,.17,.71,.18,1.18,.03Z"/><path class="cls-13" d="M289.79,127.68c-.3,.73-.36,1.37-.16,1.94s.54,.95,1.04,1.16c.33,.14,.65,.17,.97,.09,.32-.08,.65-.29,.99-.65l.13,.18c-.28,.46-.69,.81-1.23,1.06-.54,.25-1.08,.26-1.64,.03-.61-.25-1.03-.69-1.28-1.33-.24-.64-.2-1.34,.12-2.12,.35-.84,.84-1.4,1.47-1.69,.64-.29,1.29-.29,1.96-.02,.57,.23,.96,.61,1.17,1.12,.21,.51,.2,1.07-.05,1.68l-3.49-1.44Zm.13-.31l2.34,.96c.11-.32,.17-.56,.16-.71,0-.24-.08-.45-.22-.64-.14-.19-.3-.33-.5-.41-.31-.13-.63-.12-.96,0-.33,.13-.61,.39-.82,.79Z"/><path class="cls-13" d="M295.28,128.67c.48-.28,.76-.44,.84-.48,.21-.1,.42-.17,.64-.2,.22-.03,.43-.02,.63,.03,.33,.08,.6,.24,.79,.49,.19,.25,.29,.56,.28,.93,.51-.35,.92-.57,1.22-.64,.31-.07,.61-.08,.9,0,.28,.07,.51,.2,.7,.39,.18,.19,.3,.47,.35,.82,.03,.24,0,.59-.12,1.06l-.54,2.22c-.08,.32-.11,.55-.08,.68,.02,.09,.07,.18,.16,.26,.09,.08,.25,.15,.49,.21l-.05,.2-2.62-.64,.05-.2,.11,.03c.23,.05,.42,.05,.56,0,.1-.04,.19-.12,.26-.24,.03-.06,.08-.24,.16-.54l.54-2.22c.1-.42,.12-.73,.06-.93-.09-.28-.3-.46-.64-.54-.21-.05-.42-.05-.65,0-.23,.05-.53,.17-.89,.37l-.03,.06-.05,.25-.6,2.46c-.09,.35-.12,.58-.1,.67,.02,.1,.08,.19,.18,.27,.1,.08,.28,.16,.55,.23l-.05,.2-2.69-.65,.05-.2c.29,.07,.5,.09,.63,.05,.13-.04,.23-.12,.3-.25,.04-.06,.09-.24,.17-.55l.54-2.22c.1-.42,.11-.74,.03-.95-.11-.28-.32-.46-.62-.53-.21-.05-.43-.05-.66,.01-.36,.09-.65,.21-.88,.38l-.67,2.77c-.08,.34-.11,.56-.09,.68,.02,.11,.08,.21,.16,.28s.27,.15,.56,.22l-.05,.2-2.63-.64,.05-.2c.24,.06,.42,.07,.53,.05,.11-.03,.2-.09,.28-.19,.08-.1,.15-.31,.23-.63l.48-1.97c.14-.57,.21-.94,.21-1.11,0-.13-.02-.23-.06-.29-.05-.06-.12-.1-.22-.13-.11-.03-.24-.03-.41,0l-.04-.22,1.75-.24,.25,.06-.27,1.1Z"/><path class="cls-13" d="M304.46,129.38l-.48,4.24c-.04,.33-.04,.55,0,.67,.04,.11,.1,.21,.19,.27,.09,.06,.27,.11,.52,.14l-.02,.21-2.64-.3,.02-.21c.26,.03,.45,.02,.54-.02,.09-.04,.18-.11,.24-.22,.07-.11,.12-.33,.16-.65l.23-2.03c.06-.57,.09-.94,.07-1.12-.01-.13-.05-.22-.1-.27-.05-.05-.13-.09-.24-.1-.11-.01-.25,0-.41,.04l-.06-.22,1.71-.46,.26,.03Zm-.18-2.81c.17,.02,.3,.09,.41,.22s.15,.27,.13,.43c-.02,.16-.09,.29-.22,.4-.13,.1-.28,.14-.44,.12-.17-.02-.3-.09-.41-.22-.11-.13-.15-.27-.13-.44,.02-.16,.09-.29,.22-.39,.13-.1,.28-.14,.45-.12Z"/><path class="cls-13" d="M310.09,133.16c-.17,.69-.48,1.22-.92,1.58-.44,.36-.92,.53-1.45,.51-.62-.02-1.15-.3-1.59-.82s-.65-1.22-.62-2.08c.03-.83,.31-1.5,.84-2.01,.53-.5,1.15-.74,1.87-.71,.54,.02,.97,.17,1.31,.46,.34,.29,.5,.58,.49,.88,0,.15-.06,.26-.16,.35-.1,.09-.24,.13-.41,.12-.23,0-.41-.09-.52-.24-.06-.08-.1-.24-.12-.47-.01-.23-.09-.41-.22-.53-.13-.12-.33-.19-.57-.19-.4-.02-.72,.12-.98,.39-.34,.37-.52,.86-.54,1.48-.02,.63,.12,1.2,.42,1.7,.3,.5,.72,.75,1.27,.77,.39,.01,.74-.1,1.06-.35,.23-.17,.45-.48,.67-.94l.17,.09Z"/><path class="cls-13" d="M314.81,127.3l.5,3.07,1.76-.28c.46-.07,.75-.19,.88-.35,.18-.21,.24-.53,.19-.98l.22-.04,.44,2.7-.22,.04c-.12-.37-.21-.6-.28-.7-.09-.12-.22-.21-.4-.26-.17-.05-.43-.05-.76,0l-1.76,.28,.41,2.56c.06,.34,.1,.55,.15,.62,.04,.07,.11,.12,.19,.15,.09,.03,.24,.03,.46,0l1.36-.22c.45-.07,.78-.16,.97-.25s.37-.25,.53-.46c.21-.28,.4-.67,.58-1.19l.24-.04-.38,2.06-6.16,.99-.03-.21,.28-.05c.19-.03,.36-.1,.52-.22,.12-.08,.19-.19,.21-.32,.03-.13,0-.38-.05-.76l-.81-5.04c-.08-.49-.18-.79-.3-.89-.17-.13-.41-.17-.74-.11l-.28,.05-.04-.21,6.16-.99,.36,1.68-.23,.04c-.15-.39-.29-.66-.41-.8-.12-.14-.29-.23-.5-.28-.17-.03-.45-.02-.84,.05l-2.19,.35Z"/><path class="cls-13" d="M319.42,128.72l2.46-.77,.06,.21c-.16,.05-.26,.11-.3,.18-.05,.07-.06,.15-.03,.23,.03,.09,.14,.2,.33,.35,.06,.05,.15,.12,.28,.22l.55,.46,.25-.71c.16-.45,.22-.72,.19-.82-.02-.08-.08-.13-.16-.16-.08-.03-.19-.03-.34,.02l-.06-.21,1.77-.56,.06,.21c-.18,.07-.33,.17-.44,.3-.15,.18-.32,.54-.51,1.06l-.42,1.15,1.87,1.4c.46,.35,.77,.54,.94,.59,.17,.05,.36,.04,.58-.01l.06,.2-2.46,.77-.06-.2c.17-.05,.29-.13,.36-.24,.06-.07,.07-.15,.04-.24-.03-.08-.22-.26-.57-.53l-1.1-.84-.5,1.35c-.15,.42-.22,.66-.2,.72,.03,.09,.1,.16,.2,.2,.11,.04,.25,.04,.42,0l.06,.2-1.7,.54-.06-.2c.13-.06,.24-.15,.32-.25,.11-.15,.27-.5,.47-1.05l.65-1.75-1.43-1.08c-.41-.31-.7-.49-.89-.54-.19-.05-.39-.04-.63,.03l-.07-.21Z"/><path class="cls-13" d="M330.51,128.15c.14,.7,.08,1.31-.17,1.82-.25,.51-.61,.87-1.09,1.08-.57,.24-1.17,.22-1.79-.07-.62-.29-1.1-.83-1.44-1.62-.33-.77-.35-1.49-.09-2.17s.73-1.16,1.39-1.44c.49-.21,.96-.25,1.38-.14,.43,.12,.7,.32,.82,.59,.06,.13,.06,.26,0,.39-.05,.12-.16,.22-.32,.28-.22,.09-.41,.09-.58,0-.09-.05-.2-.17-.3-.37-.11-.2-.25-.33-.43-.39-.17-.05-.37-.03-.6,.07-.37,.16-.61,.41-.72,.77-.15,.47-.1,1,.14,1.57,.25,.58,.61,1.04,1.1,1.36,.48,.32,.98,.38,1.48,.16,.36-.15,.63-.41,.82-.77,.13-.25,.2-.63,.21-1.14h.19Z"/><path class="cls-13" d="M331.21,126.38c.39,.69,.87,1.12,1.43,1.32s1.09,.15,1.55-.11c.31-.18,.53-.42,.67-.71,.13-.3,.17-.69,.09-1.18h.22c.19,.51,.22,1.05,.09,1.62-.13,.58-.46,1.02-.99,1.32-.57,.33-1.18,.39-1.83,.19-.65-.2-1.19-.66-1.6-1.39-.45-.79-.59-1.52-.43-2.2,.16-.68,.56-1.2,1.19-1.56,.53-.3,1.07-.38,1.6-.24,.54,.15,.97,.5,1.29,1.07l-3.28,1.88Zm-.17-.29l2.2-1.26c-.19-.29-.34-.47-.47-.56-.19-.14-.41-.21-.64-.22-.23,0-.44,.04-.63,.15-.29,.16-.48,.42-.58,.76-.1,.35-.06,.72,.12,1.13Z"/><path class="cls-13" d="M333.61,119.06l3.93,5.85c.19,.28,.33,.44,.43,.51,.1,.06,.21,.09,.33,.08,.12-.01,.29-.1,.53-.25l.12,.17-2.22,1.5-.12-.17c.21-.14,.34-.26,.38-.35s.06-.2,.04-.33c-.02-.13-.12-.32-.31-.6l-2.69-4c-.33-.5-.55-.79-.65-.89-.1-.1-.19-.15-.27-.16-.08,0-.16,.02-.24,.07-.09,.06-.18,.16-.28,.3l-.2-.11,.99-1.45,.22-.15Z"/><path class="cls-13" d="M335.87,117.39l4.34,5.55c.21,.26,.36,.42,.47,.47,.11,.06,.22,.07,.33,.05,.12-.02,.29-.12,.51-.29l.13,.16-2.11,1.65-.13-.16c.2-.15,.32-.28,.36-.38,.04-.1,.05-.21,.02-.33-.03-.12-.15-.31-.35-.57l-2.97-3.8c-.37-.47-.61-.75-.71-.84-.11-.09-.2-.14-.28-.14-.08,0-.16,.03-.23,.09-.08,.06-.17,.17-.25,.32l-.21-.1,.89-1.51,.21-.17Z"/><path class="cls-13" d="M340.6,119.85c.54,.57,1.11,.89,1.71,.94,.6,.05,1.09-.11,1.48-.48,.26-.25,.42-.53,.48-.85,.06-.32,0-.71-.19-1.17l.21-.04c.3,.44,.46,.96,.47,1.55,0,.59-.21,1.1-.65,1.51-.48,.45-1.05,.66-1.74,.62-.68-.04-1.31-.36-1.89-.97-.62-.66-.94-1.34-.94-2.04,0-.7,.26-1.3,.79-1.8,.44-.42,.94-.63,1.5-.61,.56,.01,1.06,.26,1.51,.73l-2.74,2.6Zm-.23-.24l1.83-1.74c-.25-.23-.44-.38-.59-.44-.22-.09-.45-.11-.67-.06-.23,.05-.42,.14-.58,.29-.24,.23-.37,.52-.39,.88-.02,.36,.11,.72,.39,1.07Z"/><path class="cls-13" d="M343.88,115.17c-.15-.97-.03-1.68,.35-2.12,.2-.23,.42-.37,.67-.44,.25-.07,.54-.04,.88,.08,.23,.09,.53,.29,.89,.6l1.71,1.48c.25,.22,.45,.35,.57,.38,.1,.03,.21,.03,.31-.01,.11-.04,.24-.16,.42-.36l.16,.14-1.77,2.04-.16-.14,.07-.09c.17-.19,.25-.35,.26-.48,0-.13-.03-.25-.11-.38-.03-.05-.17-.17-.4-.38l-1.64-1.42c-.37-.32-.67-.5-.92-.54-.25-.04-.48,.05-.68,.28-.31,.36-.43,.88-.36,1.56l2.12,1.83c.27,.24,.45,.36,.55,.39,.12,.03,.23,.03,.34-.01,.1-.04,.25-.17,.45-.4l.16,.14-1.77,2.04-.16-.14,.08-.09c.18-.21,.25-.4,.21-.56-.04-.16-.21-.37-.5-.62l-1.49-1.29c-.48-.42-.79-.66-.91-.73-.12-.07-.23-.1-.3-.08-.08,.01-.15,.06-.22,.14-.07,.08-.14,.2-.2,.36l-.22-.07,.59-1.67,.17-.19,.85,.74Z"/><path class="cls-13" d="M350.97,109.48c.5,.51,.79,1.05,.86,1.62,.07,.57-.03,1.07-.32,1.5-.35,.52-.86,.82-1.53,.93-.68,.1-1.38-.09-2.09-.57-.69-.46-1.11-1.05-1.26-1.77-.15-.72-.02-1.37,.38-1.97,.3-.45,.66-.74,1.08-.87,.42-.13,.76-.12,1,.05,.12,.08,.19,.19,.21,.32,.02,.13-.02,.27-.12,.42-.13,.2-.29,.3-.48,.32-.11,.01-.26-.04-.46-.15-.2-.11-.39-.14-.57-.09-.17,.05-.33,.18-.47,.38-.22,.33-.28,.68-.18,1.04,.14,.48,.46,.89,.98,1.24,.53,.35,1.08,.53,1.66,.54,.58,0,1.02-.22,1.33-.67,.22-.32,.3-.69,.26-1.09-.03-.28-.18-.64-.45-1.07l.16-.1Z"/><g><path class="cls-13" d="M350.57,107.6c.69,.38,1.33,.49,1.91,.35,.58-.14,1-.45,1.25-.92,.17-.32,.23-.64,.19-.96-.04-.32-.23-.67-.55-1.05l.19-.11c.43,.32,.74,.76,.93,1.32,.2,.56,.15,1.11-.14,1.64-.31,.58-.79,.96-1.45,1.14-.66,.18-1.36,.07-2.1-.33-.8-.43-1.31-.97-1.54-1.64-.22-.66-.16-1.31,.18-1.95,.29-.54,.7-.89,1.23-1.06,.53-.16,1.09-.09,1.67,.22l-1.78,3.33Zm-.3-.16l1.19-2.23c-.31-.14-.54-.22-.69-.23-.24-.01-.46,.04-.66,.15-.2,.12-.35,.27-.46,.46-.16,.29-.18,.61-.09,.96s.33,.65,.7,.89Z"/><path class="cls-9" d="M354.55,98.98c1.36-3.78,2.27-7.8,2.63-11.99,1.28-14.59-4.21-28.22-13.86-37.78"/></g><g><rect class="cls-15" x="1.09" y="245.37" width="346.52" height="46.97"/><rect class="cls-2" x="1.09" y="245.37" width="346.52" height="46.97"/><path class="cls-1" d="M25.11,278.5h-4.7v-11.81c0-1.44-.57-2.15-1.67-2.15h-6.57v-3.02h7.37c3.7,0,5.57,1.61,5.57,4.83v12.15Zm-8.24,0h-4.7v-11.41h4.7v11.41Zm23.38-13.96h-1.53v13.96h-4.7v-13.96h-5.47v-3.02h11.71v3.02Zm8.64,6.68h-4.7v-6.64c0-.57-.13-1.58-.43-3.05h4.77c.23,.64,.37,1.44,.37,2.42v7.28Zm17.07,3.59c0,2.68-1.13,4.03-3.44,4.03-2.1,0-3.17-.37-3.17-1.14v-2.08c0-.3,.1-.4,.3-.37,.33,.23,.63,.37,.93,.37,.67,0,1-.74,1-2.18l.03-6.48c.1-1.71-.4-2.82-2.1-2.82-.9,0-1.5,.54-1.8,1.61-.13,.5-.2,1.41-.2,2.75v10h-4.7v-11.75c0-2.58-.23-4.33-.73-5.24h4.7c.2,.7,.3,1.58,.3,2.62,.97-1.95,2.37-2.92,4.24-2.92,3.1,0,4.64,1.48,4.64,4.43v9.16Zm14.27-9.26c-.17,1.31-.23,2.11-.23,2.45l-.4,3.89c-.1,.84-.43,3.05-.93,6.61h-4.5l1.4-12.05c0-.27,.17-.97,.17-1.24,0-.44-.4-.67-1.2-.67h-2.3c-1.2,0-2.03-.3-2.47-.94-.37-.5-.53-1.38-.53-2.62v-.64c0-.2,0-.4,.03-.64,0-1.38-.13-3.19-.43-5.44h4.77c.2,.77,.3,1.81,.27,3.05l-.03,2.58c0,1.44,.37,1.61,1.83,1.61h2.77c1.27,0,1.9,.87,1.9,2.58,0,.4-.03,.87-.1,1.44Zm26.74,12.95h-4.7v-11.54c0-1.61-.67-2.42-1.97-2.42h-1.63v10.57c0,2.48-1.13,3.72-3.4,3.72-1.27,0-2.23-.13-2.87-.4v-3.12c.23,.2,.53,.3,.83,.3,.5,0,.73-.4,.73-1.17v-12.92h8.07c3.6,0,4.94,1.38,4.94,5v11.98Zm8.44,0h-4.7v-14.6c0-.64-.13-1.41-.43-2.38h4.77c.23,.57,.37,1.34,.37,2.32v14.66Zm7.97-7.28h-4.7v-6.64c0-.57-.13-1.58-.43-3.05h4.77c.23,.64,.37,1.44,.37,2.42v7.28Zm8.57,7.28c-.3-.17-.43-.5-.4-1.01,.03-.57,.03-.81,.03-.67,0-.37-.1-.54-.27-.54-.1,0-.33,.5-.7,1.54-.43,.74-1.13,1.11-2.03,1.11-.77,0-1.33-.13-1.7-.44v-2.82c0-.34,.17-.5,.47-.5,.5,0,1.03,.44,1.13,.44,.77,0,1.17-.97,1.17-2.95l-.03-6.14c0-1.61-.1-1.98-1.57-1.98h-.93v-3.02h3.07c1.77,0,2.93,.4,3.5,1.17,.43,.64,.67,1.88,.67,3.79v8.73c0,1.64,.17,2.75,.5,3.29h-2.9Zm11.4,0h-4.7v-14.6c0-.64-.13-1.41-.43-2.38h4.77c.23,.57,.37,1.34,.37,2.32v14.66Zm14.04-12.95c-.17,1.31-.23,2.11-.23,2.45l-.4,3.89c-.1,.84-.43,3.05-.93,6.61h-4.5l1.4-12.05c0-.27,.17-.97,.17-1.24,0-.44-.4-.67-1.2-.67h-2.3c-1.2,0-2.03-.3-2.47-.94-.37-.5-.53-1.38-.53-2.62v-.64c0-.2,0-.4,.03-.64,0-1.38-.13-3.19-.43-5.44h4.77c.2,.77,.3,1.81,.27,3.05l-.03,2.58c0,1.44,.37,1.61,1.83,1.61h2.77c1.27,0,1.9,.87,1.9,2.58,0,.4-.03,.87-.1,1.44Zm8.8,12.95h-4.7v-14.6c0-.64-.13-1.41-.43-2.38h4.77c.23,.57,.37,1.34,.37,2.32v14.66Zm10.87,0h-7.5v-3.05h2.8v-9.7c0-.84-.57-1.28-1.67-1.24-.17,0-.33,0-.57,.03h-.37v-3.02h3.5c2.53,0,3.8,1.58,3.8,4.73v12.25Zm12.97-2.92c-.97,1.95-2.6,2.92-4.97,2.92h-4.34v-3.05h3.23c1.6,0,2.4-1.68,2.4-5.07,0-1.51-.1-2.65-.27-3.49-.33-1.58-.97-2.35-1.93-2.35h-3.44v-3.02h4.54c3.87,0,5.8,2.65,5.8,7.99,0,2.65-.33,4.66-1.03,6.07Zm17.57-4.16c0,2.45-.5,4.3-1.47,5.47-1.1,1.31-2.83,1.95-5.24,1.95-4.17,0-6.44-2.68-6.44-6.95v-10.37h4.7v9.66c0,1.24,.07,2.15,.17,2.65,.23,1.17,.77,1.75,1.53,1.75,.97,0,1.57-.7,1.87-2.11,.1-.54,.17-1.14,.17-1.85v-5.54c0-.54-.03-.91-.07-1.11-.1-.5-.33-.74-.7-.74-.3,0-.53,.13-.77,.37-.23,.37-.43,.6-.53,.77l-.2-.17v-2.55c.6-.97,1.57-1.44,2.9-1.44,3.03,0,4.07,1.48,4.07,4.6v5.6Zm14.4-5.87c-.17,1.31-.23,2.11-.23,2.45l-.4,3.89c-.1,.84-.43,3.05-.93,6.61h-4.5l1.4-12.05c0-.27,.17-.97,.17-1.24,0-.44-.4-.67-1.2-.67h-2.3c-1.2,0-2.03-.3-2.47-.94-.37-.5-.53-1.38-.53-2.62v-.64c0-.2,0-.4,.03-.64,0-1.38-.13-3.19-.43-5.44h4.77c.2,.77,.3,1.81,.27,3.05l-.03,2.58c0,1.44,.37,1.61,1.83,1.61h2.77c1.27,0,1.9,.87,1.9,2.58,0,.4-.03,.87-.1,1.44Zm25.14,12.95h-4.7v-11.81c0-1.44-.57-2.15-1.67-2.15h-6.57v-3.02h7.37c3.7,0,5.57,1.61,5.57,4.83v12.15Zm-8.24,0h-4.7v-11.41h4.7v11.41Zm25.01-7.08c0,2.45-.5,4.3-1.47,5.47-1.1,1.31-2.83,1.95-5.24,1.95-4.17,0-6.44-2.68-6.44-6.95v-10.37h4.7v9.66c0,1.24,.07,2.15,.17,2.65,.23,1.17,.77,1.75,1.53,1.75,.97,0,1.57-.7,1.87-2.11,.1-.54,.17-1.14,.17-1.85v-5.54c0-.54-.03-.91-.07-1.11-.1-.5-.33-.74-.7-.74-.3,0-.53,.13-.77,.37-.23,.37-.43,.6-.53,.77l-.2-.17v-2.55c.6-.97,1.57-1.44,2.9-1.44,3.03,0,4.07,1.48,4.07,4.6v5.6Zm14.4-5.87c-.17,1.31-.23,2.11-.23,2.45l-.4,3.89c-.1,.84-.43,3.05-.93,6.61h-4.5l1.4-12.05c0-.27,.17-.97,.17-1.24,0-.44-.4-.67-1.2-.67h-2.3c-1.2,0-2.03-.3-2.47-.94-.37-.5-.53-1.38-.53-2.62v-.64c0-.2,0-.4,.03-.64,0-1.38-.13-3.19-.43-5.44h4.77c.2,.77,.3,1.81,.27,3.05l-.03,2.58c0,1.44,.37,1.61,1.83,1.61h2.77c1.27,0,1.9,.87,1.9,2.58,0,.4-.03,.87-.1,1.44Zm8.8,12.95h-4.7v-14.6c0-.64-.13-1.41-.43-2.38h4.77c.23,.57,.37,1.34,.37,2.32v14.66Zm16.47-6.51c0,2.18-.23,3.72-.7,4.7-.7,1.38-1.97,2.08-3.84,2.08-.83,0-1.53-.1-2.1-.27v-2.82l.3,.03c.7,0,1.17-.27,1.4-.81,.17-.37,.23-.94,.23-1.75v-8.62h-8.5v-3.02h13.21v10.47Zm-8.2,12.92h-4.77v-17.15h4.77v17.15Zm18.01-6.41h-5.47v-3.05h4.37c1.33,0,2.23-.57,2.73-1.71,.37-.84,.53-1.98,.5-3.49l-.03-1.98c-.03-1.28-.1-2.15-.23-2.62-.3-1.01-.9-1.51-1.8-1.51-1.47,0-2.2,1.34-2.2,3.99,0,1.11,.13,2.11,.43,3.09h-4.04c-.37-1.17-.57-2.38-.57-3.56,0-4.03,2.47-6.44,6.47-6.44,2.63,0,4.47,.87,5.5,2.58,.8,1.34,1.2,3.42,1.2,6.28,0,5.6-2.3,8.42-6.87,8.42Zm22.94,0h-4.7v-11.81c0-1.44-.57-2.15-1.67-2.15h-6.57v-3.02h7.37c3.7,0,5.57,1.61,5.57,4.83v12.15Zm-8.24,0h-4.7v-11.41h4.7v11.41Z"/></g></g></svg>