<svg width="123" height="124" xmlns="http://www.w3.org/2000/svg" xmlns:xlink="http://www.w3.org/1999/xlink" overflow="hidden"><defs><clipPath id="clip0"><rect x="1060" y="277" width="123" height="124"/></clipPath></defs><g clip-path="url(#clip0)" transform="translate(-1060 -277)"><path d="M80.7188 76.875 111.469 76.875C111.469 81.1031 104.55 84.5625 96.0938 84.5625 87.6375 84.5625 80.7188 81.1031 80.7188 76.875Z" fill="#A999E5" transform="matrix(1 0 0 1.00813 1060 277)"/><path d="M42.2812 49.9688C42.2812 54.1969 35.3625 57.6562 26.9062 57.6562 18.45 57.6562 11.5312 54.1969 11.5312 49.9688Z" fill="#A999E5" transform="matrix(1 0 0 1.00813 1060 277)"/><path d="M46.125 105.062 30.75 105.062 30.75 112.75 92.25 112.75 92.25 105.062 77.0031 105.062 77.0031 102.5C76.9989 101.087 75.8541 99.9417 74.4406 99.9375L65.3438 99.9375 65.3438 34.8359 65.3899 34.8077 92.4896 45.9725 85.4747 73.0312 90.7689 73.0312 96.0938 52.4928 101.419 73.0312 106.713 73.0312 100.194 47.8739C102.138 47.031 103.031 44.7714 102.188 42.8269 101.79 41.9087 101.049 41.1823 100.123 40.8027L69.1875 28.0594C69.1382 25.363 67.6796 22.8897 65.3438 21.5417L65.3438 14.0938C65.3438 11.9709 63.6229 10.25 61.5 10.25 59.3771 10.25 57.6562 11.9709 57.6562 14.0938L57.6562 21.5404C57.1076 21.8574 56.6002 22.2407 56.1457 22.682L26.6769 10.5396C24.6906 9.79049 22.4731 10.7935 21.7241 12.7798 21.0169 14.6552 21.8694 16.7593 23.6826 17.6133L16.2873 46.125 21.5814 46.125 26.9062 25.5866 32.2311 46.125 37.5252 46.125 30.9076 20.5999 54.0688 30.1453C54.5947 32.1229 55.8853 33.8104 57.6562 34.8359L57.6562 99.9375 48.6875 99.9375C47.274 99.9417 46.1292 101.087 46.125 102.5ZM61.5 30.75C60.0847 30.75 58.9375 29.6028 58.9375 28.1875 58.9375 26.7722 60.0847 25.625 61.5 25.625 62.9153 25.625 64.0625 26.7722 64.0625 28.1875 64.0625 29.6028 62.9153 30.75 61.5 30.75Z" fill="#A999E5" transform="matrix(1 0 0 1.00813 1060 277)"/></g></svg>