<svg width="279" height="279" xmlns="http://www.w3.org/2000/svg" xmlns:xlink="http://www.w3.org/1999/xlink" xml:space="preserve" overflow="hidden"><defs><clipPath id="clip0"><rect x="520" y="1810" width="279" height="279"/></clipPath></defs><g clip-path="url(#clip0)" transform="translate(-520 -1810)"><text fill="#F0CB7F" font-family="Rubik,Rubik_MSFontService,sans-serif" font-weight="400" font-size="73" transform="translate(615.119 1977)">90</text><text fill="#F0CB7F" font-family="Rubik,Rubik_MSFontService,sans-serif" font-weight="400" font-size="73" transform="matrix(1 0 0 1 597.335 1977)"> </text><path d="M663.5 2053.96C605.876 2053.96 559 2006.9 559 1949 559 1946.86 560.746 1945.1 562.88 1945.1 565.015 1945.1 566.761 1946.86 566.761 1949 566.761 2002.61 610.144 2046.2 663.5 2046.2 716.856 2046.2 760.239 2002.61 760.239 1949 760.239 1895.39 716.817 1851.8 663.5 1851.8 661.366 1851.8 659.62 1850.04 659.62 1847.9 659.62 1845.75 661.366 1844 663.5 1844 721.125 1844 768 1891.1 768 1949 768 2006.9 721.125 2054 663.5 2054Z" fill="#A999E5" fill-rule="evenodd"/><path d="M552 1949C552 1941.82 557.82 1936 565 1936 572.18 1936 578 1941.82 578 1949 578 1956.18 572.18 1962 565 1962 557.82 1962 552 1956.18 552 1949Z" fill="#F0CB7F" fill-rule="evenodd"/></g></svg>