<svg width="423" height="424" xmlns="http://www.w3.org/2000/svg" xmlns:xlink="http://www.w3.org/1999/xlink" overflow="hidden"><defs><clipPath id="clip0"><rect x="3697" y="1155" width="423" height="424"/></clipPath><clipPath id="clip1"><rect x="3744" y="1178" width="331" height="379"/></clipPath><clipPath id="clip2"><rect x="3744" y="1178" width="331" height="379"/></clipPath><clipPath id="clip3"><rect x="3744" y="1178" width="331" height="379"/></clipPath></defs><g clip-path="url(#clip0)" transform="translate(-3697 -1155)"><g clip-path="url(#clip1)"><g clip-path="url(#clip2)"><g clip-path="url(#clip3)"><path d="M324.324 267.879 299.412 253.531 318.806 248.485C324.955 246.751 328.266 240.76 326.531 235.241 324.797 229.723 318.806 225.781 313.129 227.516L271.978 238.552 255.896 229.092 305.877 215.848C312.026 214.114 315.337 208.122 313.602 202.604 311.868 197.086 305.877 193.144 300.201 194.878L228.619 213.798 207.492 201.658C208.595 197.716 209.226 193.932 209.226 189.99 209.226 186.049 208.595 181.634 207.492 178.323L228.619 166.183 300.201 185.103C301.304 185.103 301.935 185.733 303.039 185.733 308.084 185.733 312.499 182.422 313.602 177.377 315.337 171.228 311.868 165.236 305.877 164.133L255.896 150.889 271.978 141.429 313.129 152.465C314.233 152.465 314.864 153.096 315.968 153.096 321.013 153.096 325.428 149.785 326.531 144.74 328.266 138.591 324.797 132.599 318.806 131.495L299.412 126.45 324.324 112.102C329.842 108.791 331.577 102.169 328.266 97.1237 324.955 91.6053 318.333 89.871 313.287 93.182L288.376 107.53 293.421 88.1367C295.155 81.9876 291.687 75.9962 285.695 74.8925 279.546 73.1581 273.555 76.6269 272.293 82.6182L261.257 123.612 245.174 133.072 258.576 83.0913C260.311 76.9422 256.842 70.9508 250.85 69.8471 244.701 68.1128 238.71 71.5815 237.449 77.5729L218.528 149.154 197.401 161.295C191.882 155.776 184.63 151.362 176.904 149.627L176.904 125.189 229.092 73.0005C233.507 68.5858 233.507 61.9637 229.092 57.549 224.677 53.1343 218.055 53.1343 213.483 57.549L176.273 90.344 176.273 72.0545 206.23 42.0975C210.645 37.6828 210.645 31.0607 206.23 26.646 201.816 22.2312 195.194 22.2312 190.621 26.646L176.116 40.5208 176.116 11.0368C176.116 4.88772 171.07 0 165.079 0 159.087 0 154.042 5.04539 154.042 11.0368L154.042 39.8901 139.537 25.5423C135.122 21.1276 128.5 21.1276 123.927 25.5423 119.513 29.957 119.513 36.5791 123.927 40.9938L153.884 70.9508 153.884 89.2403 117.305 52.6613C112.891 48.2465 106.269 48.2465 101.696 52.6613 97.2814 57.076 97.2814 63.698 101.696 68.1128L153.884 120.301 153.884 144.74C146.159 146.947 138.906 150.889 133.387 156.407L112.26 144.267 92.8667 73.7888C91.1323 67.6397 85.1409 64.3287 79.4649 66.0631 73.3158 67.7974 70.0048 73.7888 71.7391 79.3072L85.1409 129.288 69.0588 119.828 58.022 78.8342C56.2876 72.6851 50.2962 69.3741 44.6202 71.1085 38.4711 72.8428 35.1601 78.8342 36.8944 84.3526L41.9398 103.746 17.0282 89.398C11.5098 86.087 4.88772 88.2943 2.04969 93.3397-1.26135 98.8581 0.94601 105.48 5.9914 108.318L30.903 122.666 11.5098 127.711C5.36073 129.446 2.04969 135.437 3.78404 140.956 4.88772 146.001 9.30244 149.312 14.3478 149.312 15.4515 149.312 16.0822 149.312 17.1859 148.681L58.3373 137.645 74.4195 147.105 24.4386 160.349C18.2895 162.083 14.9785 168.075 16.7129 173.593 17.8165 178.638 22.2312 181.949 27.2766 181.949 28.3803 181.949 29.011 181.949 30.1147 181.319L101.696 162.398 122.824 174.539C121.72 180.057 121.089 184.472 121.089 188.414 121.089 192.355 121.72 196.77 122.824 200.081L101.696 212.222 30.1147 193.301C23.9656 191.567 17.9742 195.036 16.7129 201.027 15.6092 207.176 18.4472 213.168 24.4386 214.271L74.4195 227.516 58.3373 236.976 17.1859 225.939C11.0368 224.204 5.04539 227.673 3.78404 233.665 2.68036 239.814 5.51839 245.805 11.5098 246.909L30.903 251.954 5.9914 266.302C0.473005 269.613-1.26135 276.235 2.04969 281.28 4.25705 284.591 7.56808 286.799 11.5098 286.799 13.2441 286.799 15.4515 286.168 17.0282 285.065L41.9398 270.717 36.8944 290.11C35.1601 296.259 38.6288 302.25 44.6202 303.354 45.7238 303.354 46.3545 303.985 47.4582 303.985 52.5036 303.985 56.9183 300.674 58.022 295.628L69.0588 254.634 85.1409 245.174 71.7391 295.155C70.0048 301.304 73.4735 307.296 79.4649 308.399 80.5686 308.399 81.1992 309.03 82.3029 309.03 87.3483 309.03 91.763 305.719 92.8667 300.674L111.787 229.092 132.914 216.952C138.433 222.47 145.686 226.885 153.411 228.619L153.411 253.058 101.223 305.246C96.8084 309.661 96.8084 316.283 101.223 320.698 105.638 325.112 112.26 325.112 116.832 320.698L153.411 284.118 153.411 302.408 123.454 332.365C119.04 336.78 119.04 343.402 123.454 347.817 127.869 352.231 134.491 352.231 139.064 347.817L153.569 333.469 153.569 365.633C153.569 371.782 158.614 376.67 164.606 376.67 170.597 376.67 175.643 371.624 175.643 365.633L175.643 336.78 190.148 351.128C192.986 353.335 195.667 354.439 198.505 354.439 201.343 354.439 204.023 353.335 206.23 351.128 210.645 346.713 210.645 340.091 206.23 335.676L176.273 305.719 176.273 287.43 212.852 324.009C215.06 325.743 217.898 326.847 220.578 326.847 223.258 326.847 226.097 325.743 228.304 323.536 232.719 319.121 232.719 312.499 228.304 308.084L176.116 255.896 176.116 231.457C183.841 229.25 191.094 225.308 196.613 219.79L217.74 231.93 237.133 302.881C238.237 307.926 242.652 311.237 247.697 311.237 248.801 311.237 249.431 311.237 250.535 310.607 256.684 308.872 259.995 302.881 258.261 297.363L244.859 247.382 260.941 256.842 271.978 297.836C273.082 302.881 277.496 306.192 282.542 306.192 283.645 306.192 284.276 306.192 285.38 305.561 291.529 303.827 294.84 297.836 293.106 292.317L288.06 272.924 312.972 287.272C314.706 288.376 316.914 289.006 318.49 289.006 322.432 289.006 326.216 286.799 327.95 283.488 331.261 276.866 329.685 270.244 324.009 267.406ZM164.921 212.222C151.835 212.222 141.271 201.658 141.271 188.571 141.271 175.485 151.835 164.921 164.921 164.921 178.008 164.921 188.571 175.485 188.571 188.571 188.571 201.658 178.008 212.222 164.921 212.222Z" fill="#A999E5" transform="matrix(1 0 0 1.00227 3744.08 1178)"/></g></g></g></g></svg>